<svg xmlns="http://www.w3.org/2000/svg" xmlns:xlink="http://www.w3.org/1999/xlink" width="817" zoomAndPan="magnify" viewBox="0 0 612.75 197.999996" height="264" preserveAspectRatio="xMidYMid meet" version="1.0"><defs><g/><clipPath id="c6539730ba"><path d="M 15 9 L 70.914062 9 L 70.914062 84 L 15 84 Z M 15 9 " clip-rule="nonzero"/></clipPath><clipPath id="fc98e85388"><rect x="0" width="71" y="0" height="125"/></clipPath><clipPath id="49620ab517"><rect x="0" width="92" y="0" height="116"/></clipPath><clipPath id="0744ba8f04"><path d="M 3 0.6875 L 29 0.6875 L 29 36 L 3 36 Z M 3 0.6875 " clip-rule="nonzero"/></clipPath><clipPath id="3d20504ba5"><path d="M 33 0.6875 L 51 0.6875 L 51 36 L 33 36 Z M 33 0.6875 " clip-rule="nonzero"/></clipPath><clipPath id="dc9fbcdf57"><path d="M 54 0.6875 L 77 0.6875 L 77 36 L 54 36 Z M 54 0.6875 " clip-rule="nonzero"/></clipPath><clipPath id="929d126237"><path d="M 81 0.6875 L 101 0.6875 L 101 36 L 81 36 Z M 81 0.6875 " clip-rule="nonzero"/></clipPath><clipPath id="a4ff482019"><path d="M 105 0.6875 L 124 0.6875 L 124 36 L 105 36 Z M 105 0.6875 " clip-rule="nonzero"/></clipPath><clipPath id="36f4649ac0"><path d="M 128 0.6875 L 152 0.6875 L 152 36 L 128 36 Z M 128 0.6875 " clip-rule="nonzero"/></clipPath><clipPath id="c11f0f82db"><path d="M 156 0.6875 L 172 0.6875 L 172 36 L 156 36 Z M 156 0.6875 " clip-rule="nonzero"/></clipPath><clipPath id="1daca09e5b"><path d="M 190 0.6875 L 212 0.6875 L 212 36 L 190 36 Z M 190 0.6875 " clip-rule="nonzero"/></clipPath><clipPath id="51a1f544c7"><path d="M 216 0.6875 L 234 0.6875 L 234 36 L 216 36 Z M 216 0.6875 " clip-rule="nonzero"/></clipPath><clipPath id="735f1cb6ed"><path d="M 251 0.6875 L 275 0.6875 L 275 36 L 251 36 Z M 251 0.6875 " clip-rule="nonzero"/></clipPath><clipPath id="1b058608bc"><path d="M 279 0.6875 L 299 0.6875 L 299 36 L 279 36 Z M 279 0.6875 " clip-rule="nonzero"/></clipPath><clipPath id="8e8007108b"><path d="M 303 0.6875 L 323 0.6875 L 323 36 L 303 36 Z M 303 0.6875 " clip-rule="nonzero"/></clipPath><clipPath id="bf54a0751e"><path d="M 326 0.6875 L 350 0.6875 L 350 36 L 326 36 Z M 326 0.6875 " clip-rule="nonzero"/></clipPath><clipPath id="4532337bb2"><path d="M 352 0.6875 L 370 0.6875 L 370 36 L 352 36 Z M 352 0.6875 " clip-rule="nonzero"/></clipPath><clipPath id="68c129c1d5"><path d="M 372 0.6875 L 399 0.6875 L 399 36 L 372 36 Z M 372 0.6875 " clip-rule="nonzero"/></clipPath><clipPath id="cb8680d952"><path d="M 401 0.6875 L 419 0.6875 L 419 36 L 401 36 Z M 401 0.6875 " clip-rule="nonzero"/></clipPath><clipPath id="dc69758477"><rect x="0" width="422" y="0" height="40"/></clipPath></defs><g transform="matrix(1, 0, 0, 1, 44, 32)"><g clip-path="url(#fc98e85388)"><g clip-path="url(#c6539730ba)"><g fill="#1e90ff" fill-opacity="1"><g transform="translate(0.3995, 83.105968)"><g><path d="M 33.796875 0.71875 C 29.671875 0.71875 26.367188 -0.0859375 23.890625 -1.703125 C 21.421875 -3.316406 19.65625 -5.53125 18.59375 -8.34375 C 17.53125 -11.15625 17.050781 -14.347656 17.15625 -17.921875 C 17.257812 -21.492188 17.84375 -25.238281 18.90625 -29.15625 C 19.96875 -33.070312 21.390625 -36.914062 23.171875 -40.6875 C 20.835938 -41.925781 18.945312 -43.59375 17.5 -45.6875 C 16.0625 -47.78125 15.34375 -50.132812 15.34375 -52.75 C 15.34375 -53.976562 15.515625 -55.191406 15.859375 -56.390625 C 16.203125 -57.597656 16.753906 -58.71875 17.515625 -59.75 C 18.128906 -60.570312 18.796875 -60.773438 19.515625 -60.359375 C 20.242188 -59.953125 20.4375 -59.578125 20.09375 -59.234375 C 18.507812 -57.453125 17.71875 -55.289062 17.71875 -52.75 C 17.71875 -50.613281 18.300781 -48.671875 19.46875 -46.921875 C 20.632812 -45.171875 22.179688 -43.78125 24.109375 -42.75 C 26.023438 -46.800781 28.335938 -50.664062 31.046875 -54.34375 C 33.765625 -58.019531 36.738281 -61.28125 39.96875 -64.125 C 43.195312 -66.976562 46.613281 -69.210938 50.21875 -70.828125 C 53.820312 -72.441406 57.445312 -73.25 61.09375 -73.25 C 63.695312 -73.25 65.859375 -72.441406 67.578125 -70.828125 C 69.296875 -69.210938 70.15625 -66.992188 70.15625 -64.171875 C 70.15625 -61.085938 69.296875 -58.171875 67.578125 -55.421875 C 65.859375 -52.671875 63.59375 -50.179688 60.78125 -47.953125 C 57.96875 -45.722656 54.804688 -43.832031 51.296875 -42.28125 C 47.796875 -40.738281 44.242188 -39.625 40.640625 -38.9375 C 37.035156 -38.25 33.65625 -38.113281 30.5 -38.53125 C 28.976562 -35.914062 27.617188 -32.976562 26.421875 -29.71875 C 25.222656 -26.457031 24.332031 -23.175781 23.75 -19.875 C 23.164062 -16.582031 23.078125 -13.546875 23.484375 -10.765625 C 23.898438 -7.984375 24.984375 -5.75 26.734375 -4.0625 C 28.484375 -2.382812 31.039062 -1.546875 34.40625 -1.546875 C 36.8125 -1.546875 39.539062 -2.09375 42.59375 -3.1875 C 45.65625 -4.289062 48.78125 -6.144531 51.96875 -8.75 C 55.164062 -11.363281 58.132812 -14.898438 60.875 -19.359375 C 61.363281 -20.117188 61.742188 -20.550781 62.015625 -20.65625 C 62.285156 -20.757812 62.5625 -20.742188 62.84375 -20.609375 C 63.382812 -20.328125 63.488281 -19.910156 63.15625 -19.359375 C 59.851562 -14.140625 56.519531 -10.070312 53.15625 -7.15625 C 49.789062 -4.238281 46.476562 -2.195312 43.21875 -1.03125 C 39.957031 0.132812 36.816406 0.71875 33.796875 0.71875 Z M 31.625 -40.6875 C 36.363281 -40.6875 40.878906 -41.335938 45.171875 -42.640625 C 49.460938 -43.953125 53.273438 -45.707031 56.609375 -47.90625 C 59.941406 -50.101562 62.582031 -52.59375 64.53125 -55.375 C 66.488281 -58.15625 67.46875 -61.019531 67.46875 -63.96875 C 67.46875 -65.550781 66.988281 -66.859375 66.03125 -67.890625 C 65.070312 -68.921875 63.867188 -69.4375 62.421875 -69.4375 C 59.535156 -69.4375 56.664062 -68.660156 53.8125 -67.109375 C 50.96875 -65.566406 48.207031 -63.4375 45.53125 -60.71875 C 42.851562 -58.007812 40.328125 -54.9375 37.953125 -51.5 C 35.585938 -48.070312 33.476562 -44.46875 31.625 -40.6875 Z M 31.625 -40.6875 "/></g></g></g></g></g></g><g transform="matrix(1, 0, 0, 1, 56, 47)"><g clip-path="url(#49620ab517)"><g fill="#1e90ff" fill-opacity="0.4"><g transform="translate(8.100831, 82.098253)"><g><path d="M 51.234375 14.109375 C 50.421875 14.078125 49.773438 13.847656 49.296875 13.421875 C 48.816406 13.003906 48.597656 12.488281 48.640625 11.875 C 48.773438 9.082031 49.175781 6.085938 49.84375 2.890625 C 50.519531 -0.304688 51.382812 -3.640625 52.4375 -7.109375 C 50.289062 -8.265625 48.003906 -9.660156 45.578125 -11.296875 C 43.148438 -12.929688 40.628906 -14.566406 38.015625 -16.203125 C 34.421875 -11.410156 30.679688 -7.414062 26.796875 -4.21875 C 22.910156 -1.03125 18.859375 0.613281 14.640625 0.71875 C 11.179688 0.789062 8.335938 0.207031 6.109375 -1.03125 C 3.890625 -2.28125 2.300781 -3.925781 1.34375 -5.96875 C 0.394531 -8.019531 0.015625 -10.195312 0.203125 -12.5 C 0.390625 -14.800781 1.113281 -16.984375 2.375 -19.046875 C 3.632812 -21.117188 5.394531 -22.832031 7.65625 -24.1875 C 9.925781 -25.550781 12.675781 -26.269531 15.90625 -26.34375 C 19.394531 -26.414062 22.851562 -25.785156 26.28125 -24.453125 C 29.71875 -23.128906 33.054688 -21.539062 36.296875 -19.6875 C 38.941406 -23.582031 41.546875 -27.703125 44.109375 -32.046875 C 46.671875 -36.398438 49.21875 -40.660156 51.75 -44.828125 C 54.28125 -49.003906 56.785156 -52.785156 59.265625 -56.171875 C 61.742188 -59.554688 64.210938 -62.289062 66.671875 -64.375 C 69.128906 -66.46875 71.570312 -67.5625 74 -67.65625 C 76.101562 -67.738281 77.390625 -66.929688 77.859375 -65.234375 C 78.335938 -63.546875 78.203125 -61.195312 77.453125 -58.1875 C 76.703125 -55.175781 75.5625 -51.671875 74.03125 -47.671875 C 72.507812 -43.671875 70.800781 -39.394531 68.90625 -34.84375 C 67.007812 -30.300781 65.113281 -25.660156 63.21875 -20.921875 C 61.320312 -16.191406 59.625 -11.566406 58.125 -7.046875 C 59.1875 -6.710938 60.15625 -6.5625 61.03125 -6.59375 C 63.257812 -6.675781 65.195312 -7.140625 66.84375 -7.984375 C 68.5 -8.828125 70.132812 -10.253906 71.75 -12.265625 C 73.375 -14.285156 75.238281 -17.046875 77.34375 -20.546875 C 77.914062 -21.628906 78.519531 -22.023438 79.15625 -21.734375 C 79.414062 -21.617188 79.535156 -21.4375 79.515625 -21.1875 C 79.492188 -20.945312 79.453125 -20.765625 79.390625 -20.640625 C 77.296875 -17.003906 75.34375 -14.019531 73.53125 -11.6875 C 71.726562 -9.363281 69.859375 -7.617188 67.921875 -6.453125 C 65.992188 -5.285156 63.664062 -4.648438 60.9375 -4.546875 C 59.757812 -4.492188 58.597656 -4.664062 57.453125 -5.0625 C 56.460938 -1.914062 55.664062 1.09375 55.0625 3.96875 C 54.457031 6.851562 54.140625 9.507812 54.109375 11.9375 C 54.078125 12.738281 53.851562 13.304688 53.4375 13.640625 C 53.019531 13.972656 52.285156 14.128906 51.234375 14.109375 Z M 53.1875 -9.1875 C 54.914062 -14.332031 56.890625 -19.539062 59.109375 -24.8125 C 61.328125 -30.082031 63.503906 -35.109375 65.640625 -39.890625 C 67.773438 -44.671875 69.59375 -48.90625 71.09375 -52.59375 C 72.59375 -56.28125 73.53125 -59.203125 73.90625 -61.359375 C 74.289062 -63.523438 73.832031 -64.582031 72.53125 -64.53125 C 70.863281 -64.457031 69.085938 -63.4375 67.203125 -61.46875 C 65.328125 -59.5 63.335938 -56.859375 61.234375 -53.546875 C 59.128906 -50.242188 56.894531 -46.570312 54.53125 -42.53125 C 52.175781 -38.488281 49.734375 -34.335938 47.203125 -30.078125 C 44.679688 -25.816406 42.035156 -21.765625 39.265625 -17.921875 C 41.804688 -16.359375 44.253906 -14.800781 46.609375 -13.25 C 48.972656 -11.695312 51.164062 -10.34375 53.1875 -9.1875 Z M 14.65625 -1.328125 C 18.195312 -1.398438 21.675781 -3.007812 25.09375 -6.15625 C 28.507812 -9.3125 31.859375 -13.242188 35.140625 -17.953125 C 32.035156 -19.765625 28.875 -21.289062 25.65625 -22.53125 C 22.445312 -23.769531 19.195312 -24.351562 15.90625 -24.28125 C 12.726562 -24.21875 10.101562 -23.382812 8.03125 -21.78125 C 5.957031 -20.175781 4.484375 -18.222656 3.609375 -15.921875 C 2.742188 -13.617188 2.539062 -11.34375 3 -9.09375 C 3.457031 -6.851562 4.648438 -4.976562 6.578125 -3.46875 C 8.503906 -1.96875 11.195312 -1.253906 14.65625 -1.328125 Z M 14.65625 -1.328125 "/></g></g></g><g fill="#1e90ff" fill-opacity="1"><g transform="translate(3.828288, 78.149221)"><g><path d="M 51.234375 14.109375 C 50.421875 14.078125 49.773438 13.847656 49.296875 13.421875 C 48.816406 13.003906 48.597656 12.488281 48.640625 11.875 C 48.773438 9.082031 49.175781 6.085938 49.84375 2.890625 C 50.519531 -0.304688 51.382812 -3.640625 52.4375 -7.109375 C 50.289062 -8.265625 48.003906 -9.660156 45.578125 -11.296875 C 43.148438 -12.929688 40.628906 -14.566406 38.015625 -16.203125 C 34.421875 -11.410156 30.679688 -7.414062 26.796875 -4.21875 C 22.910156 -1.03125 18.859375 0.613281 14.640625 0.71875 C 11.179688 0.789062 8.335938 0.207031 6.109375 -1.03125 C 3.890625 -2.28125 2.300781 -3.925781 1.34375 -5.96875 C 0.394531 -8.019531 0.015625 -10.195312 0.203125 -12.5 C 0.390625 -14.800781 1.113281 -16.984375 2.375 -19.046875 C 3.632812 -21.117188 5.394531 -22.832031 7.65625 -24.1875 C 9.925781 -25.550781 12.675781 -26.269531 15.90625 -26.34375 C 19.394531 -26.414062 22.851562 -25.785156 26.28125 -24.453125 C 29.71875 -23.128906 33.054688 -21.539062 36.296875 -19.6875 C 38.941406 -23.582031 41.546875 -27.703125 44.109375 -32.046875 C 46.671875 -36.398438 49.21875 -40.660156 51.75 -44.828125 C 54.28125 -49.003906 56.785156 -52.785156 59.265625 -56.171875 C 61.742188 -59.554688 64.210938 -62.289062 66.671875 -64.375 C 69.128906 -66.46875 71.570312 -67.5625 74 -67.65625 C 76.101562 -67.738281 77.390625 -66.929688 77.859375 -65.234375 C 78.335938 -63.546875 78.203125 -61.195312 77.453125 -58.1875 C 76.703125 -55.175781 75.5625 -51.671875 74.03125 -47.671875 C 72.507812 -43.671875 70.800781 -39.394531 68.90625 -34.84375 C 67.007812 -30.300781 65.113281 -25.660156 63.21875 -20.921875 C 61.320312 -16.191406 59.625 -11.566406 58.125 -7.046875 C 59.1875 -6.710938 60.15625 -6.5625 61.03125 -6.59375 C 63.257812 -6.675781 65.195312 -7.140625 66.84375 -7.984375 C 68.5 -8.828125 70.132812 -10.253906 71.75 -12.265625 C 73.375 -14.285156 75.238281 -17.046875 77.34375 -20.546875 C 77.914062 -21.628906 78.519531 -22.023438 79.15625 -21.734375 C 79.414062 -21.617188 79.535156 -21.4375 79.515625 -21.1875 C 79.492188 -20.945312 79.453125 -20.765625 79.390625 -20.640625 C 77.296875 -17.003906 75.34375 -14.019531 73.53125 -11.6875 C 71.726562 -9.363281 69.859375 -7.617188 67.921875 -6.453125 C 65.992188 -5.285156 63.664062 -4.648438 60.9375 -4.546875 C 59.757812 -4.492188 58.597656 -4.664062 57.453125 -5.0625 C 56.460938 -1.914062 55.664062 1.09375 55.0625 3.96875 C 54.457031 6.851562 54.140625 9.507812 54.109375 11.9375 C 54.078125 12.738281 53.851562 13.304688 53.4375 13.640625 C 53.019531 13.972656 52.285156 14.128906 51.234375 14.109375 Z M 53.1875 -9.1875 C 54.914062 -14.332031 56.890625 -19.539062 59.109375 -24.8125 C 61.328125 -30.082031 63.503906 -35.109375 65.640625 -39.890625 C 67.773438 -44.671875 69.59375 -48.90625 71.09375 -52.59375 C 72.59375 -56.28125 73.53125 -59.203125 73.90625 -61.359375 C 74.289062 -63.523438 73.832031 -64.582031 72.53125 -64.53125 C 70.863281 -64.457031 69.085938 -63.4375 67.203125 -61.46875 C 65.328125 -59.5 63.335938 -56.859375 61.234375 -53.546875 C 59.128906 -50.242188 56.894531 -46.570312 54.53125 -42.53125 C 52.175781 -38.488281 49.734375 -34.335938 47.203125 -30.078125 C 44.679688 -25.816406 42.035156 -21.765625 39.265625 -17.921875 C 41.804688 -16.359375 44.253906 -14.800781 46.609375 -13.25 C 48.972656 -11.695312 51.164062 -10.34375 53.1875 -9.1875 Z M 14.65625 -1.328125 C 18.195312 -1.398438 21.675781 -3.007812 25.09375 -6.15625 C 28.507812 -9.3125 31.859375 -13.242188 35.140625 -17.953125 C 32.035156 -19.765625 28.875 -21.289062 25.65625 -22.53125 C 22.445312 -23.769531 19.195312 -24.351562 15.90625 -24.28125 C 12.726562 -24.21875 10.101562 -23.382812 8.03125 -21.78125 C 5.957031 -20.175781 4.484375 -18.222656 3.609375 -15.921875 C 2.742188 -13.617188 2.539062 -11.34375 3 -9.09375 C 3.457031 -6.851562 4.648438 -4.976562 6.578125 -3.46875 C 8.503906 -1.96875 11.195312 -1.253906 14.65625 -1.328125 Z M 14.65625 -1.328125 "/></g></g></g></g></g><g transform="matrix(1, 0, 0, 1, 146, 79)"><g clip-path="url(#dc69758477)"><g fill="#1e90ff" fill-opacity="0.4"><g transform="translate(2.967465, 37.126201)"><g><path d="M 27.609375 -6.328125 C 27.796875 -6.234375 27.921875 -6.078125 27.984375 -5.859375 C 28.015625 -5.640625 27.96875 -5.453125 27.84375 -5.296875 L 27.84375 -5.25 C 26.539062 -3.519531 24.960938 -2.21875 23.109375 -1.34375 C 21.210938 -0.445312 19.101562 0 16.78125 0 C 12.070312 0 8.382812 -1.75 5.71875 -5.25 C 3.457031 -8.320312 2.328125 -12.242188 2.328125 -17.015625 C 2.328125 -19.398438 2.617188 -21.582031 3.203125 -23.5625 C 3.765625 -25.550781 4.601562 -27.289062 5.71875 -28.78125 C 7.019531 -30.539062 8.613281 -31.867188 10.5 -32.765625 C 12.363281 -33.640625 14.457031 -34.078125 16.78125 -34.078125 C 19.101562 -34.078125 21.210938 -33.640625 23.109375 -32.765625 C 24.960938 -31.867188 26.539062 -30.539062 27.84375 -28.78125 C 27.96875 -28.625 28.015625 -28.4375 27.984375 -28.21875 C 27.921875 -28 27.796875 -27.84375 27.609375 -27.75 L 24.3125 -25.796875 C 23.9375 -25.640625 23.625 -25.703125 23.375 -25.984375 C 22.851562 -26.609375 22.296875 -27.101562 21.703125 -27.46875 C 21.085938 -27.84375 20.484375 -28.140625 19.890625 -28.359375 C 19.304688 -28.546875 18.75 -28.671875 18.21875 -28.734375 C 17.664062 -28.796875 17.1875 -28.828125 16.78125 -28.828125 C 16.070312 -28.828125 15.203125 -28.71875 14.171875 -28.5 C 13.117188 -28.25 12.113281 -27.722656 11.15625 -26.921875 C 10.164062 -26.109375 9.328125 -24.925781 8.640625 -23.375 C 7.929688 -21.800781 7.578125 -19.679688 7.578125 -17.015625 C 7.578125 -14.347656 7.929688 -12.238281 8.640625 -10.6875 C 9.328125 -9.144531 10.164062 -7.96875 11.15625 -7.15625 C 12.113281 -6.351562 13.117188 -5.84375 14.171875 -5.625 C 15.203125 -5.375 16.070312 -5.25 16.78125 -5.25 C 17.1875 -5.25 17.664062 -5.28125 18.21875 -5.34375 C 18.75 -5.40625 19.304688 -5.546875 19.890625 -5.765625 C 20.484375 -5.953125 21.085938 -6.226562 21.703125 -6.59375 C 22.296875 -6.96875 22.851562 -7.46875 23.375 -8.09375 C 23.625 -8.394531 23.9375 -8.441406 24.3125 -8.234375 Z M 27.609375 -6.328125 "/></g></g></g><g fill="#1e90ff" fill-opacity="0.4"><g transform="translate(33.275251, 37.126201)"><g><path d="M 19.0625 -30.171875 C 19.0625 -29.796875 18.9375 -29.484375 18.6875 -29.234375 C 18.40625 -28.960938 18.078125 -28.828125 17.703125 -28.828125 L 8.921875 -28.828125 C 8.554688 -28.828125 8.25 -28.703125 8 -28.453125 C 7.71875 -28.171875 7.578125 -27.84375 7.578125 -27.46875 L 7.578125 -24.6875 C 7.578125 -24.3125 7.71875 -24 8 -23.75 C 8.25 -23.46875 8.554688 -23.328125 8.921875 -23.328125 L 14.734375 -23.328125 C 15.140625 -23.328125 15.484375 -23.207031 15.765625 -22.96875 C 16.003906 -22.6875 16.125 -22.359375 16.125 -21.984375 L 16.125 -19.484375 C 16.125 -19.109375 16.003906 -18.78125 15.765625 -18.5 C 15.484375 -18.21875 15.140625 -18.078125 14.734375 -18.078125 L 8.921875 -18.078125 C 8.554688 -18.078125 8.25 -17.953125 8 -17.703125 C 7.71875 -17.429688 7.578125 -17.109375 7.578125 -16.734375 L 7.578125 -6.59375 C 7.578125 -6.226562 7.71875 -5.921875 8 -5.671875 C 8.25 -5.390625 8.554688 -5.25 8.921875 -5.25 L 17.703125 -5.25 C 18.078125 -5.25 18.40625 -5.125 18.6875 -4.875 C 18.9375 -4.601562 19.0625 -4.28125 19.0625 -3.90625 L 19.0625 -1.34375 C 19.0625 -0.976562 18.9375 -0.671875 18.6875 -0.421875 C 18.40625 -0.140625 18.078125 0 17.703125 0 L 3.671875 0 C 3.296875 0 2.988281 -0.140625 2.75 -0.421875 C 2.46875 -0.671875 2.328125 -0.976562 2.328125 -1.34375 L 2.328125 -32.71875 C 2.328125 -33.09375 2.46875 -33.421875 2.75 -33.703125 C 2.988281 -33.953125 3.296875 -34.078125 3.671875 -34.078125 L 17.703125 -34.078125 C 18.078125 -34.078125 18.40625 -33.953125 18.6875 -33.703125 C 18.9375 -33.421875 19.0625 -33.09375 19.0625 -32.71875 Z M 19.0625 -30.171875 "/></g></g></g><g fill="#1e90ff" fill-opacity="0.4"><g transform="translate(54.658044, 37.126201)"><g><path d="M 22.640625 -34.078125 C 23.015625 -34.078125 23.335938 -33.953125 23.609375 -33.703125 C 23.859375 -33.421875 23.984375 -33.09375 23.984375 -32.71875 L 23.984375 -1.34375 C 23.984375 -0.976562 23.859375 -0.671875 23.609375 -0.421875 C 23.335938 -0.140625 23.015625 0 22.640625 0 L 19.0625 0 C 18.5 0 18.09375 -0.265625 17.84375 -0.796875 L 8.546875 -20.6875 C 8.453125 -20.9375 8.269531 -21.03125 8 -20.96875 C 7.71875 -20.90625 7.578125 -20.734375 7.578125 -20.453125 L 7.578125 -1.34375 C 7.578125 -0.976562 7.453125 -0.671875 7.203125 -0.421875 C 6.921875 -0.140625 6.582031 0 6.1875 0 L 3.671875 0 C 3.296875 0 2.988281 -0.140625 2.75 -0.421875 C 2.46875 -0.671875 2.328125 -0.976562 2.328125 -1.34375 L 2.328125 -32.71875 C 2.328125 -33.09375 2.46875 -33.421875 2.75 -33.703125 C 2.988281 -33.953125 3.296875 -34.078125 3.671875 -34.078125 L 7.25 -34.078125 C 7.84375 -34.078125 8.242188 -33.8125 8.453125 -33.28125 L 17.75 -13.390625 C 17.84375 -13.140625 18.046875 -13.046875 18.359375 -13.109375 C 18.609375 -13.171875 18.734375 -13.34375 18.734375 -13.625 L 18.734375 -32.71875 C 18.734375 -33.09375 18.875 -33.421875 19.15625 -33.703125 C 19.425781 -33.953125 19.75 -34.078125 20.125 -34.078125 Z M 22.640625 -34.078125 "/></g></g></g><g fill="#1e90ff" fill-opacity="0.4"><g transform="translate(80.968177, 37.126201)"><g><path d="M 21.515625 -30.171875 C 21.515625 -29.796875 21.394531 -29.484375 21.15625 -29.234375 C 20.875 -28.960938 20.53125 -28.828125 20.125 -28.828125 L 15.890625 -28.828125 C 15.523438 -28.828125 15.21875 -28.703125 14.96875 -28.453125 C 14.6875 -28.171875 14.546875 -27.84375 14.546875 -27.46875 L 14.546875 -1.34375 C 14.546875 -0.976562 14.421875 -0.671875 14.171875 -0.421875 C 13.898438 -0.140625 13.5625 0 13.15625 0 L 10.640625 0 C 10.273438 0 9.96875 -0.140625 9.71875 -0.421875 C 9.4375 -0.671875 9.296875 -0.976562 9.296875 -1.34375 L 9.296875 -27.46875 C 9.296875 -27.84375 9.171875 -28.171875 8.921875 -28.453125 C 8.640625 -28.703125 8.316406 -28.828125 7.953125 -28.828125 L 3.671875 -28.828125 C 3.296875 -28.828125 2.988281 -28.960938 2.75 -29.234375 C 2.46875 -29.484375 2.328125 -29.796875 2.328125 -30.171875 L 2.328125 -32.71875 C 2.328125 -33.09375 2.46875 -33.421875 2.75 -33.703125 C 2.988281 -33.953125 3.296875 -34.078125 3.671875 -34.078125 L 20.125 -34.078125 C 20.53125 -34.078125 20.875 -33.953125 21.15625 -33.703125 C 21.394531 -33.421875 21.515625 -33.09375 21.515625 -32.71875 Z M 21.515625 -30.171875 "/></g></g></g><g fill="#1e90ff" fill-opacity="0.4"><g transform="translate(104.81464, 37.126201)"><g><path d="M 11.34375 -34.078125 C 13.082031 -34.078125 14.582031 -33.6875 15.84375 -32.90625 C 17.113281 -32.101562 18.15625 -31.066406 18.96875 -29.796875 C 19.769531 -28.523438 20.34375 -27.097656 20.6875 -25.515625 C 21.03125 -23.941406 21.140625 -22.347656 21.015625 -20.734375 C 20.859375 -19.117188 20.484375 -17.582031 19.890625 -16.125 C 19.273438 -14.675781 18.441406 -13.453125 17.390625 -12.453125 C 16.921875 -12.054688 16.796875 -11.578125 17.015625 -11.015625 L 20.359375 -1.8125 C 20.515625 -1.375 20.46875 -0.972656 20.21875 -0.609375 C 19.9375 -0.203125 19.550781 0 19.0625 0 L 16.40625 0 C 15.757812 0 15.328125 -0.296875 15.109375 -0.890625 L 12.09375 -9.25 C 11.875 -9.84375 11.4375 -10.140625 10.78125 -10.140625 L 8.921875 -10.140625 C 8.554688 -10.140625 8.25 -10.015625 8 -9.765625 C 7.71875 -9.484375 7.578125 -9.15625 7.578125 -8.78125 L 7.578125 -1.34375 C 7.578125 -0.976562 7.453125 -0.671875 7.203125 -0.421875 C 6.921875 -0.140625 6.597656 0 6.234375 0 L 3.671875 0 C 3.296875 0 2.988281 -0.140625 2.75 -0.421875 C 2.46875 -0.671875 2.328125 -0.976562 2.328125 -1.34375 L 2.328125 -32.71875 C 2.328125 -33.09375 2.46875 -33.421875 2.75 -33.703125 C 2.988281 -33.953125 3.296875 -34.078125 3.671875 -34.078125 Z M 7.578125 -16.734375 C 7.578125 -16.359375 7.71875 -16.050781 8 -15.8125 C 8.25 -15.53125 8.554688 -15.390625 8.921875 -15.390625 L 11.4375 -15.390625 C 12.394531 -15.390625 13.203125 -15.726562 13.859375 -16.40625 C 14.503906 -17.0625 15 -17.882812 15.34375 -18.875 C 15.675781 -19.863281 15.84375 -20.945312 15.84375 -22.125 C 15.84375 -23.269531 15.691406 -24.335938 15.390625 -25.328125 C 15.046875 -26.328125 14.550781 -27.164062 13.90625 -27.84375 C 13.25 -28.5 12.425781 -28.828125 11.4375 -28.828125 L 8.921875 -28.828125 C 8.554688 -28.828125 8.25 -28.703125 8 -28.453125 C 7.71875 -28.171875 7.578125 -27.84375 7.578125 -27.46875 Z M 7.578125 -16.734375 "/></g></g></g><g fill="#1e90ff" fill-opacity="0.4"><g transform="translate(128.196264, 37.126201)"><g><path d="M 21.25 0 C 20.59375 0 20.15625 -0.335938 19.9375 -1.015625 C 19.84375 -1.359375 19.71875 -1.859375 19.5625 -2.515625 C 19.382812 -3.128906 19.15625 -3.976562 18.875 -5.0625 C 18.65625 -5.75 18.207031 -6.09375 17.53125 -6.09375 L 10.09375 -6.09375 C 9.40625 -6.09375 8.953125 -5.75 8.734375 -5.0625 C 8.515625 -4.226562 8.332031 -3.472656 8.1875 -2.796875 C 8 -2.109375 7.828125 -1.515625 7.671875 -1.015625 C 7.453125 -0.335938 7.019531 0 6.375 0 L 3.71875 0 C 3.28125 0 2.925781 -0.1875 2.65625 -0.5625 C 2.375 -0.894531 2.296875 -1.28125 2.421875 -1.71875 C 2.722656 -2.863281 3.109375 -4.320312 3.578125 -6.09375 C 4.046875 -7.820312 4.554688 -9.710938 5.109375 -11.765625 C 5.671875 -13.773438 6.242188 -15.863281 6.828125 -18.03125 C 7.390625 -20.175781 7.929688 -22.222656 8.453125 -24.171875 C 8.953125 -26.085938 9.421875 -27.835938 9.859375 -29.421875 C 10.253906 -30.972656 10.578125 -32.179688 10.828125 -33.046875 C 10.890625 -33.359375 11.046875 -33.609375 11.296875 -33.796875 C 11.546875 -33.984375 11.820312 -34.078125 12.125 -34.078125 L 15.484375 -34.078125 C 15.785156 -34.078125 16.0625 -33.984375 16.3125 -33.796875 C 16.5625 -33.609375 16.71875 -33.359375 16.78125 -33.046875 C 17.863281 -28.960938 18.804688 -25.460938 19.609375 -22.546875 C 20.390625 -19.628906 21.039062 -17.179688 21.5625 -15.203125 C 22.09375 -13.210938 22.53125 -11.613281 22.875 -10.40625 C 23.175781 -9.195312 23.4375 -8.238281 23.65625 -7.53125 C 23.84375 -6.789062 24 -6.234375 24.125 -5.859375 C 24.21875 -5.453125 24.3125 -5.078125 24.40625 -4.734375 C 24.5 -4.398438 24.609375 -4.015625 24.734375 -3.578125 C 24.828125 -3.140625 24.976562 -2.519531 25.1875 -1.71875 C 25.3125 -1.28125 25.238281 -0.894531 24.96875 -0.5625 C 24.6875 -0.1875 24.328125 0 23.890625 0 Z M 10.875 -13.0625 C 10.75 -12.625 10.828125 -12.238281 11.109375 -11.90625 C 11.390625 -11.53125 11.742188 -11.34375 12.171875 -11.34375 L 15.4375 -11.34375 C 15.863281 -11.34375 16.21875 -11.53125 16.5 -11.90625 C 16.78125 -12.238281 16.859375 -12.625 16.734375 -13.0625 C 16.484375 -13.925781 16.234375 -14.851562 15.984375 -15.84375 C 15.710938 -16.84375 15.421875 -17.898438 15.109375 -19.015625 C 15.015625 -19.359375 14.84375 -19.617188 14.59375 -19.796875 C 14.34375 -19.953125 14.082031 -20.03125 13.8125 -20.03125 C 13.53125 -20.03125 13.265625 -19.953125 13.015625 -19.796875 C 12.765625 -19.617188 12.59375 -19.359375 12.5 -19.015625 C 12.226562 -18.023438 11.96875 -17.03125 11.71875 -16.03125 C 11.4375 -15.039062 11.15625 -14.050781 10.875 -13.0625 Z M 10.875 -13.0625 "/></g></g></g><g fill="#1e90ff" fill-opacity="0.4"><g transform="translate(155.807957, 37.126201)"><g><path d="M 16.5 -5.25 C 16.875 -5.25 17.203125 -5.125 17.484375 -4.875 C 17.722656 -4.601562 17.84375 -4.28125 17.84375 -3.90625 L 17.84375 -1.34375 C 17.84375 -0.976562 17.722656 -0.671875 17.484375 -0.421875 C 17.203125 -0.140625 16.875 0 16.5 0 L 3.671875 0 C 3.296875 0 2.988281 -0.140625 2.75 -0.421875 C 2.46875 -0.671875 2.328125 -0.976562 2.328125 -1.34375 L 2.328125 -32.71875 C 2.328125 -33.09375 2.46875 -33.421875 2.75 -33.703125 C 2.988281 -33.953125 3.296875 -34.078125 3.671875 -34.078125 L 6.234375 -34.078125 C 6.597656 -34.078125 6.921875 -33.953125 7.203125 -33.703125 C 7.453125 -33.421875 7.578125 -33.09375 7.578125 -32.71875 L 7.578125 -6.59375 C 7.578125 -6.226562 7.71875 -5.921875 8 -5.671875 C 8.25 -5.390625 8.554688 -5.25 8.921875 -5.25 Z M 16.5 -5.25 "/></g></g></g><g fill="#1e90ff" fill-opacity="0.4"><g transform="translate(175.982161, 37.126201)"><g/></g></g><g fill="#1e90ff" fill-opacity="0.4"><g transform="translate(189.927464, 37.126201)"><g><path d="M 7.578125 -34.078125 C 10.085938 -34.078125 12.347656 -33.625 14.359375 -32.71875 C 16.378906 -31.820312 18.101562 -30.613281 19.53125 -29.09375 C 20.914062 -27.550781 22 -25.753906 22.78125 -23.703125 C 23.519531 -21.628906 23.890625 -19.414062 23.890625 -17.0625 C 23.890625 -14.707031 23.519531 -12.503906 22.78125 -10.453125 C 22 -8.378906 20.914062 -6.566406 19.53125 -5.015625 C 18.101562 -3.472656 16.378906 -2.25 14.359375 -1.34375 C 12.347656 -0.445312 10.085938 0 7.578125 0 L 3.671875 0 C 3.296875 0 2.988281 -0.140625 2.75 -0.421875 C 2.46875 -0.671875 2.328125 -0.976562 2.328125 -1.34375 L 2.328125 -32.71875 C 2.328125 -33.09375 2.46875 -33.421875 2.75 -33.703125 C 2.988281 -33.953125 3.296875 -34.078125 3.671875 -34.078125 Z M 7.578125 -6.6875 C 7.578125 -6.257812 7.734375 -5.921875 8.046875 -5.671875 C 8.316406 -5.390625 8.671875 -5.28125 9.109375 -5.34375 C 10.597656 -5.53125 11.914062 -5.960938 13.0625 -6.640625 C 14.207031 -7.328125 15.164062 -8.195312 15.9375 -9.25 C 16.71875 -10.269531 17.304688 -11.460938 17.703125 -12.828125 C 18.078125 -14.160156 18.265625 -15.570312 18.265625 -17.0625 C 18.265625 -18.550781 18.078125 -19.976562 17.703125 -21.34375 C 17.304688 -22.664062 16.71875 -23.859375 15.9375 -24.921875 C 15.164062 -25.941406 14.207031 -26.789062 13.0625 -27.46875 C 11.914062 -28.15625 10.597656 -28.59375 9.109375 -28.78125 C 8.671875 -28.832031 8.316406 -28.722656 8.046875 -28.453125 C 7.734375 -28.171875 7.578125 -27.828125 7.578125 -27.421875 Z M 7.578125 -6.6875 "/></g></g></g><g fill="#1e90ff" fill-opacity="0.4"><g transform="translate(216.144641, 37.126201)"><g><path d="M 19.0625 -30.171875 C 19.0625 -29.796875 18.9375 -29.484375 18.6875 -29.234375 C 18.40625 -28.960938 18.078125 -28.828125 17.703125 -28.828125 L 8.921875 -28.828125 C 8.554688 -28.828125 8.25 -28.703125 8 -28.453125 C 7.71875 -28.171875 7.578125 -27.84375 7.578125 -27.46875 L 7.578125 -24.6875 C 7.578125 -24.3125 7.71875 -24 8 -23.75 C 8.25 -23.46875 8.554688 -23.328125 8.921875 -23.328125 L 14.734375 -23.328125 C 15.140625 -23.328125 15.484375 -23.207031 15.765625 -22.96875 C 16.003906 -22.6875 16.125 -22.359375 16.125 -21.984375 L 16.125 -19.484375 C 16.125 -19.109375 16.003906 -18.78125 15.765625 -18.5 C 15.484375 -18.21875 15.140625 -18.078125 14.734375 -18.078125 L 8.921875 -18.078125 C 8.554688 -18.078125 8.25 -17.953125 8 -17.703125 C 7.71875 -17.429688 7.578125 -17.109375 7.578125 -16.734375 L 7.578125 -6.59375 C 7.578125 -6.226562 7.71875 -5.921875 8 -5.671875 C 8.25 -5.390625 8.554688 -5.25 8.921875 -5.25 L 17.703125 -5.25 C 18.078125 -5.25 18.40625 -5.125 18.6875 -4.875 C 18.9375 -4.601562 19.0625 -4.28125 19.0625 -3.90625 L 19.0625 -1.34375 C 19.0625 -0.976562 18.9375 -0.671875 18.6875 -0.421875 C 18.40625 -0.140625 18.078125 0 17.703125 0 L 3.671875 0 C 3.296875 0 2.988281 -0.140625 2.75 -0.421875 C 2.46875 -0.671875 2.328125 -0.976562 2.328125 -1.34375 L 2.328125 -32.71875 C 2.328125 -33.09375 2.46875 -33.421875 2.75 -33.703125 C 2.988281 -33.953125 3.296875 -34.078125 3.671875 -34.078125 L 17.703125 -34.078125 C 18.078125 -34.078125 18.40625 -33.953125 18.6875 -33.703125 C 18.9375 -33.421875 19.0625 -33.09375 19.0625 -32.71875 Z M 19.0625 -30.171875 "/></g></g></g><g fill="#1e90ff" fill-opacity="0.4"><g transform="translate(237.527426, 37.126201)"><g/></g></g><g fill="#1e90ff" fill-opacity="0.4"><g transform="translate(251.472729, 37.126201)"><g><path d="M 21.25 0 C 20.59375 0 20.15625 -0.335938 19.9375 -1.015625 C 19.84375 -1.359375 19.71875 -1.859375 19.5625 -2.515625 C 19.382812 -3.128906 19.15625 -3.976562 18.875 -5.0625 C 18.65625 -5.75 18.207031 -6.09375 17.53125 -6.09375 L 10.09375 -6.09375 C 9.40625 -6.09375 8.953125 -5.75 8.734375 -5.0625 C 8.515625 -4.226562 8.332031 -3.472656 8.1875 -2.796875 C 8 -2.109375 7.828125 -1.515625 7.671875 -1.015625 C 7.453125 -0.335938 7.019531 0 6.375 0 L 3.71875 0 C 3.28125 0 2.925781 -0.1875 2.65625 -0.5625 C 2.375 -0.894531 2.296875 -1.28125 2.421875 -1.71875 C 2.722656 -2.863281 3.109375 -4.320312 3.578125 -6.09375 C 4.046875 -7.820312 4.554688 -9.710938 5.109375 -11.765625 C 5.671875 -13.773438 6.242188 -15.863281 6.828125 -18.03125 C 7.390625 -20.175781 7.929688 -22.222656 8.453125 -24.171875 C 8.953125 -26.085938 9.421875 -27.835938 9.859375 -29.421875 C 10.253906 -30.972656 10.578125 -32.179688 10.828125 -33.046875 C 10.890625 -33.359375 11.046875 -33.609375 11.296875 -33.796875 C 11.546875 -33.984375 11.820312 -34.078125 12.125 -34.078125 L 15.484375 -34.078125 C 15.785156 -34.078125 16.0625 -33.984375 16.3125 -33.796875 C 16.5625 -33.609375 16.71875 -33.359375 16.78125 -33.046875 C 17.863281 -28.960938 18.804688 -25.460938 19.609375 -22.546875 C 20.390625 -19.628906 21.039062 -17.179688 21.5625 -15.203125 C 22.09375 -13.210938 22.53125 -11.613281 22.875 -10.40625 C 23.175781 -9.195312 23.4375 -8.238281 23.65625 -7.53125 C 23.84375 -6.789062 24 -6.234375 24.125 -5.859375 C 24.21875 -5.453125 24.3125 -5.078125 24.40625 -4.734375 C 24.5 -4.398438 24.609375 -4.015625 24.734375 -3.578125 C 24.828125 -3.140625 24.976562 -2.519531 25.1875 -1.71875 C 25.3125 -1.28125 25.238281 -0.894531 24.96875 -0.5625 C 24.6875 -0.1875 24.328125 0 23.890625 0 Z M 10.875 -13.0625 C 10.75 -12.625 10.828125 -12.238281 11.109375 -11.90625 C 11.390625 -11.53125 11.742188 -11.34375 12.171875 -11.34375 L 15.4375 -11.34375 C 15.863281 -11.34375 16.21875 -11.53125 16.5 -11.90625 C 16.78125 -12.238281 16.859375 -12.625 16.734375 -13.0625 C 16.484375 -13.925781 16.234375 -14.851562 15.984375 -15.84375 C 15.710938 -16.84375 15.421875 -17.898438 15.109375 -19.015625 C 15.015625 -19.359375 14.84375 -19.617188 14.59375 -19.796875 C 14.34375 -19.953125 14.082031 -20.03125 13.8125 -20.03125 C 13.53125 -20.03125 13.265625 -19.953125 13.015625 -19.796875 C 12.765625 -19.617188 12.59375 -19.359375 12.5 -19.015625 C 12.226562 -18.023438 11.96875 -17.03125 11.71875 -16.03125 C 11.4375 -15.039062 11.15625 -14.050781 10.875 -13.0625 Z M 10.875 -13.0625 "/></g></g></g><g fill="#1e90ff" fill-opacity="0.4"><g transform="translate(279.084415, 37.126201)"><g><path d="M 21.515625 -30.171875 C 21.515625 -29.796875 21.394531 -29.484375 21.15625 -29.234375 C 20.875 -28.960938 20.53125 -28.828125 20.125 -28.828125 L 15.890625 -28.828125 C 15.523438 -28.828125 15.21875 -28.703125 14.96875 -28.453125 C 14.6875 -28.171875 14.546875 -27.84375 14.546875 -27.46875 L 14.546875 -1.34375 C 14.546875 -0.976562 14.421875 -0.671875 14.171875 -0.421875 C 13.898438 -0.140625 13.5625 0 13.15625 0 L 10.640625 0 C 10.273438 0 9.96875 -0.140625 9.71875 -0.421875 C 9.4375 -0.671875 9.296875 -0.976562 9.296875 -1.34375 L 9.296875 -27.46875 C 9.296875 -27.84375 9.171875 -28.171875 8.921875 -28.453125 C 8.640625 -28.703125 8.316406 -28.828125 7.953125 -28.828125 L 3.671875 -28.828125 C 3.296875 -28.828125 2.988281 -28.960938 2.75 -29.234375 C 2.46875 -29.484375 2.328125 -29.796875 2.328125 -30.171875 L 2.328125 -32.71875 C 2.328125 -33.09375 2.46875 -33.421875 2.75 -33.703125 C 2.988281 -33.953125 3.296875 -34.078125 3.671875 -34.078125 L 20.125 -34.078125 C 20.53125 -34.078125 20.875 -33.953125 21.15625 -33.703125 C 21.394531 -33.421875 21.515625 -33.09375 21.515625 -32.71875 Z M 21.515625 -30.171875 "/></g></g></g><g fill="#1e90ff" fill-opacity="0.4"><g transform="translate(302.930878, 37.126201)"><g><path d="M 11.34375 -34.078125 C 13.082031 -34.078125 14.582031 -33.6875 15.84375 -32.90625 C 17.113281 -32.101562 18.15625 -31.066406 18.96875 -29.796875 C 19.769531 -28.523438 20.34375 -27.097656 20.6875 -25.515625 C 21.03125 -23.941406 21.140625 -22.347656 21.015625 -20.734375 C 20.859375 -19.117188 20.484375 -17.582031 19.890625 -16.125 C 19.273438 -14.675781 18.441406 -13.453125 17.390625 -12.453125 C 16.921875 -12.054688 16.796875 -11.578125 17.015625 -11.015625 L 20.359375 -1.8125 C 20.515625 -1.375 20.46875 -0.972656 20.21875 -0.609375 C 19.9375 -0.203125 19.550781 0 19.0625 0 L 16.40625 0 C 15.757812 0 15.328125 -0.296875 15.109375 -0.890625 L 12.09375 -9.25 C 11.875 -9.84375 11.4375 -10.140625 10.78125 -10.140625 L 8.921875 -10.140625 C 8.554688 -10.140625 8.25 -10.015625 8 -9.765625 C 7.71875 -9.484375 7.578125 -9.15625 7.578125 -8.78125 L 7.578125 -1.34375 C 7.578125 -0.976562 7.453125 -0.671875 7.203125 -0.421875 C 6.921875 -0.140625 6.597656 0 6.234375 0 L 3.671875 0 C 3.296875 0 2.988281 -0.140625 2.75 -0.421875 C 2.46875 -0.671875 2.328125 -0.976562 2.328125 -1.34375 L 2.328125 -32.71875 C 2.328125 -33.09375 2.46875 -33.421875 2.75 -33.703125 C 2.988281 -33.953125 3.296875 -34.078125 3.671875 -34.078125 Z M 7.578125 -16.734375 C 7.578125 -16.359375 7.71875 -16.050781 8 -15.8125 C 8.25 -15.53125 8.554688 -15.390625 8.921875 -15.390625 L 11.4375 -15.390625 C 12.394531 -15.390625 13.203125 -15.726562 13.859375 -16.40625 C 14.503906 -17.0625 15 -17.882812 15.34375 -18.875 C 15.675781 -19.863281 15.84375 -20.945312 15.84375 -22.125 C 15.84375 -23.269531 15.691406 -24.335938 15.390625 -25.328125 C 15.046875 -26.328125 14.550781 -27.164062 13.90625 -27.84375 C 13.25 -28.5 12.425781 -28.828125 11.4375 -28.828125 L 8.921875 -28.828125 C 8.554688 -28.828125 8.25 -28.703125 8 -28.453125 C 7.71875 -28.171875 7.578125 -27.84375 7.578125 -27.46875 Z M 7.578125 -16.734375 "/></g></g></g><g fill="#1e90ff" fill-opacity="0.4"><g transform="translate(326.312495, 37.126201)"><g><path d="M 21.25 0 C 20.59375 0 20.15625 -0.335938 19.9375 -1.015625 C 19.84375 -1.359375 19.71875 -1.859375 19.5625 -2.515625 C 19.382812 -3.128906 19.15625 -3.976562 18.875 -5.0625 C 18.65625 -5.75 18.207031 -6.09375 17.53125 -6.09375 L 10.09375 -6.09375 C 9.40625 -6.09375 8.953125 -5.75 8.734375 -5.0625 C 8.515625 -4.226562 8.332031 -3.472656 8.1875 -2.796875 C 8 -2.109375 7.828125 -1.515625 7.671875 -1.015625 C 7.453125 -0.335938 7.019531 0 6.375 0 L 3.71875 0 C 3.28125 0 2.925781 -0.1875 2.65625 -0.5625 C 2.375 -0.894531 2.296875 -1.28125 2.421875 -1.71875 C 2.722656 -2.863281 3.109375 -4.320312 3.578125 -6.09375 C 4.046875 -7.820312 4.554688 -9.710938 5.109375 -11.765625 C 5.671875 -13.773438 6.242188 -15.863281 6.828125 -18.03125 C 7.390625 -20.175781 7.929688 -22.222656 8.453125 -24.171875 C 8.953125 -26.085938 9.421875 -27.835938 9.859375 -29.421875 C 10.253906 -30.972656 10.578125 -32.179688 10.828125 -33.046875 C 10.890625 -33.359375 11.046875 -33.609375 11.296875 -33.796875 C 11.546875 -33.984375 11.820312 -34.078125 12.125 -34.078125 L 15.484375 -34.078125 C 15.785156 -34.078125 16.0625 -33.984375 16.3125 -33.796875 C 16.5625 -33.609375 16.71875 -33.359375 16.78125 -33.046875 C 17.863281 -28.960938 18.804688 -25.460938 19.609375 -22.546875 C 20.390625 -19.628906 21.039062 -17.179688 21.5625 -15.203125 C 22.09375 -13.210938 22.53125 -11.613281 22.875 -10.40625 C 23.175781 -9.195312 23.4375 -8.238281 23.65625 -7.53125 C 23.84375 -6.789062 24 -6.234375 24.125 -5.859375 C 24.21875 -5.453125 24.3125 -5.078125 24.40625 -4.734375 C 24.5 -4.398438 24.609375 -4.015625 24.734375 -3.578125 C 24.828125 -3.140625 24.976562 -2.519531 25.1875 -1.71875 C 25.3125 -1.28125 25.238281 -0.894531 24.96875 -0.5625 C 24.6875 -0.1875 24.328125 0 23.890625 0 Z M 10.875 -13.0625 C 10.75 -12.625 10.828125 -12.238281 11.109375 -11.90625 C 11.390625 -11.53125 11.742188 -11.34375 12.171875 -11.34375 L 15.4375 -11.34375 C 15.863281 -11.34375 16.21875 -11.53125 16.5 -11.90625 C 16.78125 -12.238281 16.859375 -12.625 16.734375 -13.0625 C 16.484375 -13.925781 16.234375 -14.851562 15.984375 -15.84375 C 15.710938 -16.84375 15.421875 -17.898438 15.109375 -19.015625 C 15.015625 -19.359375 14.84375 -19.617188 14.59375 -19.796875 C 14.34375 -19.953125 14.082031 -20.03125 13.8125 -20.03125 C 13.53125 -20.03125 13.265625 -19.953125 13.015625 -19.796875 C 12.765625 -19.617188 12.59375 -19.359375 12.5 -19.015625 C 12.226562 -18.023438 11.96875 -17.03125 11.71875 -16.03125 C 11.4375 -15.039062 11.15625 -14.050781 10.875 -13.0625 Z M 10.875 -13.0625 "/></g></g></g><g fill="#1e90ff" fill-opacity="0.4"><g transform="translate(352.529641, 37.126201)"><g><path d="M 10.640625 -34.078125 C 13.335938 -34.078125 15.367188 -33.347656 16.734375 -31.890625 C 18.097656 -30.429688 18.78125 -28.367188 18.78125 -25.703125 C 18.78125 -25.390625 18.6875 -25.144531 18.5 -24.96875 C 18.28125 -24.75 18.015625 -24.640625 17.703125 -24.640625 L 14.59375 -24.640625 C 14.28125 -24.640625 14.035156 -24.75 13.859375 -24.96875 C 13.640625 -25.144531 13.53125 -25.390625 13.53125 -25.703125 L 13.53125 -26.03125 C 13.53125 -27.207031 13.296875 -28.0625 12.828125 -28.59375 C 12.359375 -29.082031 11.675781 -29.328125 10.78125 -29.328125 C 9.882812 -29.328125 9.203125 -29.082031 8.734375 -28.59375 C 8.242188 -28.0625 8 -27.207031 8 -26.03125 C 8 -25.414062 8.078125 -24.84375 8.234375 -24.3125 C 8.378906 -23.75 8.640625 -23.191406 9.015625 -22.640625 C 9.390625 -22.078125 9.882812 -21.488281 10.5 -20.875 C 11.09375 -20.21875 11.835938 -19.519531 12.734375 -18.78125 C 13.878906 -17.820312 14.859375 -16.921875 15.671875 -16.078125 C 16.441406 -15.210938 17.0625 -14.378906 17.53125 -13.578125 C 17.988281 -12.734375 18.328125 -11.894531 18.546875 -11.0625 C 18.734375 -10.226562 18.828125 -9.332031 18.828125 -8.375 C 18.828125 -5.675781 18.144531 -3.613281 16.78125 -2.1875 C 15.382812 -0.726562 13.320312 0 10.59375 0 C 7.875 0 5.816406 -0.726562 4.421875 -2.1875 C 3.023438 -3.613281 2.328125 -5.675781 2.328125 -8.375 L 2.328125 -9.390625 C 2.328125 -9.671875 2.4375 -9.921875 2.65625 -10.140625 C 2.832031 -10.316406 3.0625 -10.40625 3.34375 -10.40625 L 6.515625 -10.40625 C 6.785156 -10.40625 7.03125 -10.316406 7.25 -10.140625 C 7.46875 -9.921875 7.578125 -9.671875 7.578125 -9.390625 L 7.578125 -8.046875 C 7.578125 -6.867188 7.828125 -6.03125 8.328125 -5.53125 C 8.816406 -5.03125 9.507812 -4.78125 10.40625 -4.78125 C 11.3125 -4.78125 12.023438 -5.03125 12.546875 -5.53125 C 13.046875 -6.03125 13.296875 -6.867188 13.296875 -8.046875 C 13.296875 -8.628906 13.21875 -9.203125 13.0625 -9.765625 C 12.90625 -10.316406 12.640625 -10.875 12.265625 -11.4375 C 11.898438 -11.988281 11.421875 -12.59375 10.828125 -13.25 C 10.210938 -13.863281 9.453125 -14.546875 8.546875 -15.296875 C 7.398438 -16.253906 6.441406 -17.148438 5.671875 -17.984375 C 4.898438 -18.828125 4.28125 -19.664062 3.8125 -20.5 C 3.3125 -21.332031 2.972656 -22.171875 2.796875 -23.015625 C 2.578125 -23.847656 2.46875 -24.742188 2.46875 -25.703125 C 2.46875 -28.367188 3.148438 -30.429688 4.515625 -31.890625 C 5.867188 -33.347656 7.910156 -34.078125 10.640625 -34.078125 Z M 10.640625 -34.078125 "/></g></g></g><g fill="#1e90ff" fill-opacity="0.4"><g transform="translate(372.28548, 37.126201)"><g><path d="M 15.25 0 C 10.9375 0 7.601562 -1.796875 5.25 -5.390625 C 3.300781 -8.429688 2.328125 -12.304688 2.328125 -17.015625 C 2.328125 -19.335938 2.570312 -21.488281 3.0625 -23.46875 C 3.5625 -25.425781 4.289062 -27.148438 5.25 -28.640625 C 7.601562 -32.265625 10.9375 -34.078125 15.25 -34.078125 C 19.550781 -34.078125 22.878906 -32.265625 25.234375 -28.640625 C 26.203125 -27.148438 26.929688 -25.425781 27.421875 -23.46875 C 27.921875 -21.488281 28.171875 -19.335938 28.171875 -17.015625 C 28.171875 -12.304688 27.191406 -8.429688 25.234375 -5.390625 C 22.878906 -1.796875 19.550781 0 15.25 0 Z M 15.25 -28.828125 C 14.070312 -28.828125 13.0625 -28.609375 12.21875 -28.171875 C 11.382812 -27.703125 10.691406 -27.113281 10.140625 -26.40625 C 9.546875 -25.65625 9.078125 -24.847656 8.734375 -23.984375 C 8.398438 -23.085938 8.15625 -22.207031 8 -21.34375 C 7.8125 -20.4375 7.703125 -19.613281 7.671875 -18.875 C 7.609375 -18.09375 7.578125 -17.472656 7.578125 -17.015625 C 7.578125 -16.546875 7.609375 -15.941406 7.671875 -15.203125 C 7.703125 -14.421875 7.8125 -13.597656 8 -12.734375 C 8.15625 -11.867188 8.398438 -11.003906 8.734375 -10.140625 C 9.078125 -9.234375 9.546875 -8.425781 10.140625 -7.71875 C 10.691406 -6.96875 11.382812 -6.378906 12.21875 -5.953125 C 13.0625 -5.484375 14.070312 -5.25 15.25 -5.25 C 16.425781 -5.25 17.429688 -5.484375 18.265625 -5.953125 C 19.109375 -6.378906 19.820312 -6.96875 20.40625 -7.71875 C 20.96875 -8.425781 21.414062 -9.234375 21.75 -10.140625 C 22.09375 -11.003906 22.359375 -11.867188 22.546875 -12.734375 C 22.703125 -13.597656 22.8125 -14.421875 22.875 -15.203125 C 22.90625 -15.941406 22.921875 -16.546875 22.921875 -17.015625 C 22.921875 -17.472656 22.90625 -18.09375 22.875 -18.875 C 22.8125 -19.613281 22.703125 -20.4375 22.546875 -21.34375 C 22.359375 -22.207031 22.09375 -23.085938 21.75 -23.984375 C 21.414062 -24.847656 20.96875 -25.65625 20.40625 -26.40625 C 19.820312 -27.113281 19.109375 -27.703125 18.265625 -28.171875 C 17.429688 -28.609375 16.425781 -28.828125 15.25 -28.828125 Z M 15.25 -28.828125 "/></g></g></g><g fill="#1e90ff" fill-opacity="0.4"><g transform="translate(401.384638, 37.126201)"><g><path d="M 10.640625 -34.078125 C 13.335938 -34.078125 15.367188 -33.347656 16.734375 -31.890625 C 18.097656 -30.429688 18.78125 -28.367188 18.78125 -25.703125 C 18.78125 -25.390625 18.6875 -25.144531 18.5 -24.96875 C 18.28125 -24.75 18.015625 -24.640625 17.703125 -24.640625 L 14.59375 -24.640625 C 14.28125 -24.640625 14.035156 -24.75 13.859375 -24.96875 C 13.640625 -25.144531 13.53125 -25.390625 13.53125 -25.703125 L 13.53125 -26.03125 C 13.53125 -27.207031 13.296875 -28.0625 12.828125 -28.59375 C 12.359375 -29.082031 11.675781 -29.328125 10.78125 -29.328125 C 9.882812 -29.328125 9.203125 -29.082031 8.734375 -28.59375 C 8.242188 -28.0625 8 -27.207031 8 -26.03125 C 8 -25.414062 8.078125 -24.84375 8.234375 -24.3125 C 8.378906 -23.75 8.640625 -23.191406 9.015625 -22.640625 C 9.390625 -22.078125 9.882812 -21.488281 10.5 -20.875 C 11.09375 -20.21875 11.835938 -19.519531 12.734375 -18.78125 C 13.878906 -17.820312 14.859375 -16.921875 15.671875 -16.078125 C 16.441406 -15.210938 17.0625 -14.378906 17.53125 -13.578125 C 17.988281 -12.734375 18.328125 -11.894531 18.546875 -11.0625 C 18.734375 -10.226562 18.828125 -9.332031 18.828125 -8.375 C 18.828125 -5.675781 18.144531 -3.613281 16.78125 -2.1875 C 15.382812 -0.726562 13.320312 0 10.59375 0 C 7.875 0 5.816406 -0.726562 4.421875 -2.1875 C 3.023438 -3.613281 2.328125 -5.675781 2.328125 -8.375 L 2.328125 -9.390625 C 2.328125 -9.671875 2.4375 -9.921875 2.65625 -10.140625 C 2.832031 -10.316406 3.0625 -10.40625 3.34375 -10.40625 L 6.515625 -10.40625 C 6.785156 -10.40625 7.03125 -10.316406 7.25 -10.140625 C 7.46875 -9.921875 7.578125 -9.671875 7.578125 -9.390625 L 7.578125 -8.046875 C 7.578125 -6.867188 7.828125 -6.03125 8.328125 -5.53125 C 8.816406 -5.03125 9.507812 -4.78125 10.40625 -4.78125 C 11.3125 -4.78125 12.023438 -5.03125 12.546875 -5.53125 C 13.046875 -6.03125 13.296875 -6.867188 13.296875 -8.046875 C 13.296875 -8.628906 13.21875 -9.203125 13.0625 -9.765625 C 12.90625 -10.316406 12.640625 -10.875 12.265625 -11.4375 C 11.898438 -11.988281 11.421875 -12.59375 10.828125 -13.25 C 10.210938 -13.863281 9.453125 -14.546875 8.546875 -15.296875 C 7.398438 -16.253906 6.441406 -17.148438 5.671875 -17.984375 C 4.898438 -18.828125 4.28125 -19.664062 3.8125 -20.5 C 3.3125 -21.332031 2.972656 -22.171875 2.796875 -23.015625 C 2.578125 -23.847656 2.46875 -24.742188 2.46875 -25.703125 C 2.46875 -28.367188 3.148438 -30.429688 4.515625 -31.890625 C 5.867188 -33.347656 7.910156 -34.078125 10.640625 -34.078125 Z M 10.640625 -34.078125 "/></g></g></g><g clip-path="url(#0744ba8f04)"><g fill="#f4f4ef" fill-opacity="1"><g transform="translate(0.913018, 35.071754)"><g><path d="M 27.609375 -6.328125 C 27.796875 -6.234375 27.921875 -6.078125 27.984375 -5.859375 C 28.015625 -5.640625 27.96875 -5.453125 27.84375 -5.296875 L 27.84375 -5.25 C 26.539062 -3.519531 24.960938 -2.21875 23.109375 -1.34375 C 21.210938 -0.445312 19.101562 0 16.78125 0 C 12.070312 0 8.382812 -1.75 5.71875 -5.25 C 3.457031 -8.320312 2.328125 -12.242188 2.328125 -17.015625 C 2.328125 -19.398438 2.617188 -21.582031 3.203125 -23.5625 C 3.765625 -25.550781 4.601562 -27.289062 5.71875 -28.78125 C 7.019531 -30.539062 8.613281 -31.867188 10.5 -32.765625 C 12.363281 -33.640625 14.457031 -34.078125 16.78125 -34.078125 C 19.101562 -34.078125 21.210938 -33.640625 23.109375 -32.765625 C 24.960938 -31.867188 26.539062 -30.539062 27.84375 -28.78125 C 27.96875 -28.625 28.015625 -28.4375 27.984375 -28.21875 C 27.921875 -28 27.796875 -27.84375 27.609375 -27.75 L 24.3125 -25.796875 C 23.9375 -25.640625 23.625 -25.703125 23.375 -25.984375 C 22.851562 -26.609375 22.296875 -27.101562 21.703125 -27.46875 C 21.085938 -27.84375 20.484375 -28.140625 19.890625 -28.359375 C 19.304688 -28.546875 18.75 -28.671875 18.21875 -28.734375 C 17.664062 -28.796875 17.1875 -28.828125 16.78125 -28.828125 C 16.070312 -28.828125 15.203125 -28.71875 14.171875 -28.5 C 13.117188 -28.25 12.113281 -27.722656 11.15625 -26.921875 C 10.164062 -26.109375 9.328125 -24.925781 8.640625 -23.375 C 7.929688 -21.800781 7.578125 -19.679688 7.578125 -17.015625 C 7.578125 -14.347656 7.929688 -12.238281 8.640625 -10.6875 C 9.328125 -9.144531 10.164062 -7.96875 11.15625 -7.15625 C 12.113281 -6.351562 13.117188 -5.84375 14.171875 -5.625 C 15.203125 -5.375 16.070312 -5.25 16.78125 -5.25 C 17.1875 -5.25 17.664062 -5.28125 18.21875 -5.34375 C 18.75 -5.40625 19.304688 -5.546875 19.890625 -5.765625 C 20.484375 -5.953125 21.085938 -6.226562 21.703125 -6.59375 C 22.296875 -6.96875 22.851562 -7.46875 23.375 -8.09375 C 23.625 -8.394531 23.9375 -8.441406 24.3125 -8.234375 Z M 27.609375 -6.328125 "/></g></g></g></g><g clip-path="url(#3d20504ba5)"><g fill="#f4f4ef" fill-opacity="1"><g transform="translate(31.220804, 35.071754)"><g><path d="M 19.0625 -30.171875 C 19.0625 -29.796875 18.9375 -29.484375 18.6875 -29.234375 C 18.40625 -28.960938 18.078125 -28.828125 17.703125 -28.828125 L 8.921875 -28.828125 C 8.554688 -28.828125 8.25 -28.703125 8 -28.453125 C 7.71875 -28.171875 7.578125 -27.84375 7.578125 -27.46875 L 7.578125 -24.6875 C 7.578125 -24.3125 7.71875 -24 8 -23.75 C 8.25 -23.46875 8.554688 -23.328125 8.921875 -23.328125 L 14.734375 -23.328125 C 15.140625 -23.328125 15.484375 -23.207031 15.765625 -22.96875 C 16.003906 -22.6875 16.125 -22.359375 16.125 -21.984375 L 16.125 -19.484375 C 16.125 -19.109375 16.003906 -18.78125 15.765625 -18.5 C 15.484375 -18.21875 15.140625 -18.078125 14.734375 -18.078125 L 8.921875 -18.078125 C 8.554688 -18.078125 8.25 -17.953125 8 -17.703125 C 7.71875 -17.429688 7.578125 -17.109375 7.578125 -16.734375 L 7.578125 -6.59375 C 7.578125 -6.226562 7.71875 -5.921875 8 -5.671875 C 8.25 -5.390625 8.554688 -5.25 8.921875 -5.25 L 17.703125 -5.25 C 18.078125 -5.25 18.40625 -5.125 18.6875 -4.875 C 18.9375 -4.601562 19.0625 -4.28125 19.0625 -3.90625 L 19.0625 -1.34375 C 19.0625 -0.976562 18.9375 -0.671875 18.6875 -0.421875 C 18.40625 -0.140625 18.078125 0 17.703125 0 L 3.671875 0 C 3.296875 0 2.988281 -0.140625 2.75 -0.421875 C 2.46875 -0.671875 2.328125 -0.976562 2.328125 -1.34375 L 2.328125 -32.71875 C 2.328125 -33.09375 2.46875 -33.421875 2.75 -33.703125 C 2.988281 -33.953125 3.296875 -34.078125 3.671875 -34.078125 L 17.703125 -34.078125 C 18.078125 -34.078125 18.40625 -33.953125 18.6875 -33.703125 C 18.9375 -33.421875 19.0625 -33.09375 19.0625 -32.71875 Z M 19.0625 -30.171875 "/></g></g></g></g><g clip-path="url(#dc9fbcdf57)"><g fill="#f4f4ef" fill-opacity="1"><g transform="translate(52.603597, 35.071754)"><g><path d="M 22.640625 -34.078125 C 23.015625 -34.078125 23.335938 -33.953125 23.609375 -33.703125 C 23.859375 -33.421875 23.984375 -33.09375 23.984375 -32.71875 L 23.984375 -1.34375 C 23.984375 -0.976562 23.859375 -0.671875 23.609375 -0.421875 C 23.335938 -0.140625 23.015625 0 22.640625 0 L 19.0625 0 C 18.5 0 18.09375 -0.265625 17.84375 -0.796875 L 8.546875 -20.6875 C 8.453125 -20.9375 8.269531 -21.03125 8 -20.96875 C 7.71875 -20.90625 7.578125 -20.734375 7.578125 -20.453125 L 7.578125 -1.34375 C 7.578125 -0.976562 7.453125 -0.671875 7.203125 -0.421875 C 6.921875 -0.140625 6.582031 0 6.1875 0 L 3.671875 0 C 3.296875 0 2.988281 -0.140625 2.75 -0.421875 C 2.46875 -0.671875 2.328125 -0.976562 2.328125 -1.34375 L 2.328125 -32.71875 C 2.328125 -33.09375 2.46875 -33.421875 2.75 -33.703125 C 2.988281 -33.953125 3.296875 -34.078125 3.671875 -34.078125 L 7.25 -34.078125 C 7.84375 -34.078125 8.242188 -33.8125 8.453125 -33.28125 L 17.75 -13.390625 C 17.84375 -13.140625 18.046875 -13.046875 18.359375 -13.109375 C 18.609375 -13.171875 18.734375 -13.34375 18.734375 -13.625 L 18.734375 -32.71875 C 18.734375 -33.09375 18.875 -33.421875 19.15625 -33.703125 C 19.425781 -33.953125 19.75 -34.078125 20.125 -34.078125 Z M 22.640625 -34.078125 "/></g></g></g></g><g clip-path="url(#929d126237)"><g fill="#f4f4ef" fill-opacity="1"><g transform="translate(78.91373, 35.071754)"><g><path d="M 21.515625 -30.171875 C 21.515625 -29.796875 21.394531 -29.484375 21.15625 -29.234375 C 20.875 -28.960938 20.53125 -28.828125 20.125 -28.828125 L 15.890625 -28.828125 C 15.523438 -28.828125 15.21875 -28.703125 14.96875 -28.453125 C 14.6875 -28.171875 14.546875 -27.84375 14.546875 -27.46875 L 14.546875 -1.34375 C 14.546875 -0.976562 14.421875 -0.671875 14.171875 -0.421875 C 13.898438 -0.140625 13.5625 0 13.15625 0 L 10.640625 0 C 10.273438 0 9.96875 -0.140625 9.71875 -0.421875 C 9.4375 -0.671875 9.296875 -0.976562 9.296875 -1.34375 L 9.296875 -27.46875 C 9.296875 -27.84375 9.171875 -28.171875 8.921875 -28.453125 C 8.640625 -28.703125 8.316406 -28.828125 7.953125 -28.828125 L 3.671875 -28.828125 C 3.296875 -28.828125 2.988281 -28.960938 2.75 -29.234375 C 2.46875 -29.484375 2.328125 -29.796875 2.328125 -30.171875 L 2.328125 -32.71875 C 2.328125 -33.09375 2.46875 -33.421875 2.75 -33.703125 C 2.988281 -33.953125 3.296875 -34.078125 3.671875 -34.078125 L 20.125 -34.078125 C 20.53125 -34.078125 20.875 -33.953125 21.15625 -33.703125 C 21.394531 -33.421875 21.515625 -33.09375 21.515625 -32.71875 Z M 21.515625 -30.171875 "/></g></g></g></g><g clip-path="url(#a4ff482019)"><g fill="#f4f4ef" fill-opacity="1"><g transform="translate(102.760192, 35.071754)"><g><path d="M 11.34375 -34.078125 C 13.082031 -34.078125 14.582031 -33.6875 15.84375 -32.90625 C 17.113281 -32.101562 18.15625 -31.066406 18.96875 -29.796875 C 19.769531 -28.523438 20.34375 -27.097656 20.6875 -25.515625 C 21.03125 -23.941406 21.140625 -22.347656 21.015625 -20.734375 C 20.859375 -19.117188 20.484375 -17.582031 19.890625 -16.125 C 19.273438 -14.675781 18.441406 -13.453125 17.390625 -12.453125 C 16.921875 -12.054688 16.796875 -11.578125 17.015625 -11.015625 L 20.359375 -1.8125 C 20.515625 -1.375 20.46875 -0.972656 20.21875 -0.609375 C 19.9375 -0.203125 19.550781 0 19.0625 0 L 16.40625 0 C 15.757812 0 15.328125 -0.296875 15.109375 -0.890625 L 12.09375 -9.25 C 11.875 -9.84375 11.4375 -10.140625 10.78125 -10.140625 L 8.921875 -10.140625 C 8.554688 -10.140625 8.25 -10.015625 8 -9.765625 C 7.71875 -9.484375 7.578125 -9.15625 7.578125 -8.78125 L 7.578125 -1.34375 C 7.578125 -0.976562 7.453125 -0.671875 7.203125 -0.421875 C 6.921875 -0.140625 6.597656 0 6.234375 0 L 3.671875 0 C 3.296875 0 2.988281 -0.140625 2.75 -0.421875 C 2.46875 -0.671875 2.328125 -0.976562 2.328125 -1.34375 L 2.328125 -32.71875 C 2.328125 -33.09375 2.46875 -33.421875 2.75 -33.703125 C 2.988281 -33.953125 3.296875 -34.078125 3.671875 -34.078125 Z M 7.578125 -16.734375 C 7.578125 -16.359375 7.71875 -16.050781 8 -15.8125 C 8.25 -15.53125 8.554688 -15.390625 8.921875 -15.390625 L 11.4375 -15.390625 C 12.394531 -15.390625 13.203125 -15.726562 13.859375 -16.40625 C 14.503906 -17.0625 15 -17.882812 15.34375 -18.875 C 15.675781 -19.863281 15.84375 -20.945312 15.84375 -22.125 C 15.84375 -23.269531 15.691406 -24.335938 15.390625 -25.328125 C 15.046875 -26.328125 14.550781 -27.164062 13.90625 -27.84375 C 13.25 -28.5 12.425781 -28.828125 11.4375 -28.828125 L 8.921875 -28.828125 C 8.554688 -28.828125 8.25 -28.703125 8 -28.453125 C 7.71875 -28.171875 7.578125 -27.84375 7.578125 -27.46875 Z M 7.578125 -16.734375 "/></g></g></g></g><g clip-path="url(#36f4649ac0)"><g fill="#f4f4ef" fill-opacity="1"><g transform="translate(126.141816, 35.071754)"><g><path d="M 21.25 0 C 20.59375 0 20.15625 -0.335938 19.9375 -1.015625 C 19.84375 -1.359375 19.71875 -1.859375 19.5625 -2.515625 C 19.382812 -3.128906 19.15625 -3.976562 18.875 -5.0625 C 18.65625 -5.75 18.207031 -6.09375 17.53125 -6.09375 L 10.09375 -6.09375 C 9.40625 -6.09375 8.953125 -5.75 8.734375 -5.0625 C 8.515625 -4.226562 8.332031 -3.472656 8.1875 -2.796875 C 8 -2.109375 7.828125 -1.515625 7.671875 -1.015625 C 7.453125 -0.335938 7.019531 0 6.375 0 L 3.71875 0 C 3.28125 0 2.925781 -0.1875 2.65625 -0.5625 C 2.375 -0.894531 2.296875 -1.28125 2.421875 -1.71875 C 2.722656 -2.863281 3.109375 -4.320312 3.578125 -6.09375 C 4.046875 -7.820312 4.554688 -9.710938 5.109375 -11.765625 C 5.671875 -13.773438 6.242188 -15.863281 6.828125 -18.03125 C 7.390625 -20.175781 7.929688 -22.222656 8.453125 -24.171875 C 8.953125 -26.085938 9.421875 -27.835938 9.859375 -29.421875 C 10.253906 -30.972656 10.578125 -32.179688 10.828125 -33.046875 C 10.890625 -33.359375 11.046875 -33.609375 11.296875 -33.796875 C 11.546875 -33.984375 11.820312 -34.078125 12.125 -34.078125 L 15.484375 -34.078125 C 15.785156 -34.078125 16.0625 -33.984375 16.3125 -33.796875 C 16.5625 -33.609375 16.71875 -33.359375 16.78125 -33.046875 C 17.863281 -28.960938 18.804688 -25.460938 19.609375 -22.546875 C 20.390625 -19.628906 21.039062 -17.179688 21.5625 -15.203125 C 22.09375 -13.210938 22.53125 -11.613281 22.875 -10.40625 C 23.175781 -9.195312 23.4375 -8.238281 23.65625 -7.53125 C 23.84375 -6.789062 24 -6.234375 24.125 -5.859375 C 24.21875 -5.453125 24.3125 -5.078125 24.40625 -4.734375 C 24.5 -4.398438 24.609375 -4.015625 24.734375 -3.578125 C 24.828125 -3.140625 24.976562 -2.519531 25.1875 -1.71875 C 25.3125 -1.28125 25.238281 -0.894531 24.96875 -0.5625 C 24.6875 -0.1875 24.328125 0 23.890625 0 Z M 10.875 -13.0625 C 10.75 -12.625 10.828125 -12.238281 11.109375 -11.90625 C 11.390625 -11.53125 11.742188 -11.34375 12.171875 -11.34375 L 15.4375 -11.34375 C 15.863281 -11.34375 16.21875 -11.53125 16.5 -11.90625 C 16.78125 -12.238281 16.859375 -12.625 16.734375 -13.0625 C 16.484375 -13.925781 16.234375 -14.851562 15.984375 -15.84375 C 15.710938 -16.84375 15.421875 -17.898438 15.109375 -19.015625 C 15.015625 -19.359375 14.84375 -19.617188 14.59375 -19.796875 C 14.34375 -19.953125 14.082031 -20.03125 13.8125 -20.03125 C 13.53125 -20.03125 13.265625 -19.953125 13.015625 -19.796875 C 12.765625 -19.617188 12.59375 -19.359375 12.5 -19.015625 C 12.226562 -18.023438 11.96875 -17.03125 11.71875 -16.03125 C 11.4375 -15.039062 11.15625 -14.050781 10.875 -13.0625 Z M 10.875 -13.0625 "/></g></g></g></g><g clip-path="url(#c11f0f82db)"><g fill="#f4f4ef" fill-opacity="1"><g transform="translate(153.75351, 35.071754)"><g><path d="M 16.5 -5.25 C 16.875 -5.25 17.203125 -5.125 17.484375 -4.875 C 17.722656 -4.601562 17.84375 -4.28125 17.84375 -3.90625 L 17.84375 -1.34375 C 17.84375 -0.976562 17.722656 -0.671875 17.484375 -0.421875 C 17.203125 -0.140625 16.875 0 16.5 0 L 3.671875 0 C 3.296875 0 2.988281 -0.140625 2.75 -0.421875 C 2.46875 -0.671875 2.328125 -0.976562 2.328125 -1.34375 L 2.328125 -32.71875 C 2.328125 -33.09375 2.46875 -33.421875 2.75 -33.703125 C 2.988281 -33.953125 3.296875 -34.078125 3.671875 -34.078125 L 6.234375 -34.078125 C 6.597656 -34.078125 6.921875 -33.953125 7.203125 -33.703125 C 7.453125 -33.421875 7.578125 -33.09375 7.578125 -32.71875 L 7.578125 -6.59375 C 7.578125 -6.226562 7.71875 -5.921875 8 -5.671875 C 8.25 -5.390625 8.554688 -5.25 8.921875 -5.25 Z M 16.5 -5.25 "/></g></g></g></g><g fill="#f4f4ef" fill-opacity="1"><g transform="translate(173.927713, 35.071754)"><g/></g></g><g clip-path="url(#1daca09e5b)"><g fill="#f4f4ef" fill-opacity="1"><g transform="translate(187.873016, 35.071754)"><g><path d="M 7.578125 -34.078125 C 10.085938 -34.078125 12.347656 -33.625 14.359375 -32.71875 C 16.378906 -31.820312 18.101562 -30.613281 19.53125 -29.09375 C 20.914062 -27.550781 22 -25.753906 22.78125 -23.703125 C 23.519531 -21.628906 23.890625 -19.414062 23.890625 -17.0625 C 23.890625 -14.707031 23.519531 -12.503906 22.78125 -10.453125 C 22 -8.378906 20.914062 -6.566406 19.53125 -5.015625 C 18.101562 -3.472656 16.378906 -2.25 14.359375 -1.34375 C 12.347656 -0.445312 10.085938 0 7.578125 0 L 3.671875 0 C 3.296875 0 2.988281 -0.140625 2.75 -0.421875 C 2.46875 -0.671875 2.328125 -0.976562 2.328125 -1.34375 L 2.328125 -32.71875 C 2.328125 -33.09375 2.46875 -33.421875 2.75 -33.703125 C 2.988281 -33.953125 3.296875 -34.078125 3.671875 -34.078125 Z M 7.578125 -6.6875 C 7.578125 -6.257812 7.734375 -5.921875 8.046875 -5.671875 C 8.316406 -5.390625 8.671875 -5.28125 9.109375 -5.34375 C 10.597656 -5.53125 11.914062 -5.960938 13.0625 -6.640625 C 14.207031 -7.328125 15.164062 -8.195312 15.9375 -9.25 C 16.71875 -10.269531 17.304688 -11.460938 17.703125 -12.828125 C 18.078125 -14.160156 18.265625 -15.570312 18.265625 -17.0625 C 18.265625 -18.550781 18.078125 -19.976562 17.703125 -21.34375 C 17.304688 -22.664062 16.71875 -23.859375 15.9375 -24.921875 C 15.164062 -25.941406 14.207031 -26.789062 13.0625 -27.46875 C 11.914062 -28.15625 10.597656 -28.59375 9.109375 -28.78125 C 8.671875 -28.832031 8.316406 -28.722656 8.046875 -28.453125 C 7.734375 -28.171875 7.578125 -27.828125 7.578125 -27.421875 Z M 7.578125 -6.6875 "/></g></g></g></g><g clip-path="url(#51a1f544c7)"><g fill="#f4f4ef" fill-opacity="1"><g transform="translate(214.090193, 35.071754)"><g><path d="M 19.0625 -30.171875 C 19.0625 -29.796875 18.9375 -29.484375 18.6875 -29.234375 C 18.40625 -28.960938 18.078125 -28.828125 17.703125 -28.828125 L 8.921875 -28.828125 C 8.554688 -28.828125 8.25 -28.703125 8 -28.453125 C 7.71875 -28.171875 7.578125 -27.84375 7.578125 -27.46875 L 7.578125 -24.6875 C 7.578125 -24.3125 7.71875 -24 8 -23.75 C 8.25 -23.46875 8.554688 -23.328125 8.921875 -23.328125 L 14.734375 -23.328125 C 15.140625 -23.328125 15.484375 -23.207031 15.765625 -22.96875 C 16.003906 -22.6875 16.125 -22.359375 16.125 -21.984375 L 16.125 -19.484375 C 16.125 -19.109375 16.003906 -18.78125 15.765625 -18.5 C 15.484375 -18.21875 15.140625 -18.078125 14.734375 -18.078125 L 8.921875 -18.078125 C 8.554688 -18.078125 8.25 -17.953125 8 -17.703125 C 7.71875 -17.429688 7.578125 -17.109375 7.578125 -16.734375 L 7.578125 -6.59375 C 7.578125 -6.226562 7.71875 -5.921875 8 -5.671875 C 8.25 -5.390625 8.554688 -5.25 8.921875 -5.25 L 17.703125 -5.25 C 18.078125 -5.25 18.40625 -5.125 18.6875 -4.875 C 18.9375 -4.601562 19.0625 -4.28125 19.0625 -3.90625 L 19.0625 -1.34375 C 19.0625 -0.976562 18.9375 -0.671875 18.6875 -0.421875 C 18.40625 -0.140625 18.078125 0 17.703125 0 L 3.671875 0 C 3.296875 0 2.988281 -0.140625 2.75 -0.421875 C 2.46875 -0.671875 2.328125 -0.976562 2.328125 -1.34375 L 2.328125 -32.71875 C 2.328125 -33.09375 2.46875 -33.421875 2.75 -33.703125 C 2.988281 -33.953125 3.296875 -34.078125 3.671875 -34.078125 L 17.703125 -34.078125 C 18.078125 -34.078125 18.40625 -33.953125 18.6875 -33.703125 C 18.9375 -33.421875 19.0625 -33.09375 19.0625 -32.71875 Z M 19.0625 -30.171875 "/></g></g></g></g><g fill="#f4f4ef" fill-opacity="1"><g transform="translate(235.472979, 35.071754)"><g/></g></g><g clip-path="url(#735f1cb6ed)"><g fill="#f4f4ef" fill-opacity="1"><g transform="translate(249.418282, 35.071754)"><g><path d="M 21.25 0 C 20.59375 0 20.15625 -0.335938 19.9375 -1.015625 C 19.84375 -1.359375 19.71875 -1.859375 19.5625 -2.515625 C 19.382812 -3.128906 19.15625 -3.976562 18.875 -5.0625 C 18.65625 -5.75 18.207031 -6.09375 17.53125 -6.09375 L 10.09375 -6.09375 C 9.40625 -6.09375 8.953125 -5.75 8.734375 -5.0625 C 8.515625 -4.226562 8.332031 -3.472656 8.1875 -2.796875 C 8 -2.109375 7.828125 -1.515625 7.671875 -1.015625 C 7.453125 -0.335938 7.019531 0 6.375 0 L 3.71875 0 C 3.28125 0 2.925781 -0.1875 2.65625 -0.5625 C 2.375 -0.894531 2.296875 -1.28125 2.421875 -1.71875 C 2.722656 -2.863281 3.109375 -4.320312 3.578125 -6.09375 C 4.046875 -7.820312 4.554688 -9.710938 5.109375 -11.765625 C 5.671875 -13.773438 6.242188 -15.863281 6.828125 -18.03125 C 7.390625 -20.175781 7.929688 -22.222656 8.453125 -24.171875 C 8.953125 -26.085938 9.421875 -27.835938 9.859375 -29.421875 C 10.253906 -30.972656 10.578125 -32.179688 10.828125 -33.046875 C 10.890625 -33.359375 11.046875 -33.609375 11.296875 -33.796875 C 11.546875 -33.984375 11.820312 -34.078125 12.125 -34.078125 L 15.484375 -34.078125 C 15.785156 -34.078125 16.0625 -33.984375 16.3125 -33.796875 C 16.5625 -33.609375 16.71875 -33.359375 16.78125 -33.046875 C 17.863281 -28.960938 18.804688 -25.460938 19.609375 -22.546875 C 20.390625 -19.628906 21.039062 -17.179688 21.5625 -15.203125 C 22.09375 -13.210938 22.53125 -11.613281 22.875 -10.40625 C 23.175781 -9.195312 23.4375 -8.238281 23.65625 -7.53125 C 23.84375 -6.789062 24 -6.234375 24.125 -5.859375 C 24.21875 -5.453125 24.3125 -5.078125 24.40625 -4.734375 C 24.5 -4.398438 24.609375 -4.015625 24.734375 -3.578125 C 24.828125 -3.140625 24.976562 -2.519531 25.1875 -1.71875 C 25.3125 -1.28125 25.238281 -0.894531 24.96875 -0.5625 C 24.6875 -0.1875 24.328125 0 23.890625 0 Z M 10.875 -13.0625 C 10.75 -12.625 10.828125 -12.238281 11.109375 -11.90625 C 11.390625 -11.53125 11.742188 -11.34375 12.171875 -11.34375 L 15.4375 -11.34375 C 15.863281 -11.34375 16.21875 -11.53125 16.5 -11.90625 C 16.78125 -12.238281 16.859375 -12.625 16.734375 -13.0625 C 16.484375 -13.925781 16.234375 -14.851562 15.984375 -15.84375 C 15.710938 -16.84375 15.421875 -17.898438 15.109375 -19.015625 C 15.015625 -19.359375 14.84375 -19.617188 14.59375 -19.796875 C 14.34375 -19.953125 14.082031 -20.03125 13.8125 -20.03125 C 13.53125 -20.03125 13.265625 -19.953125 13.015625 -19.796875 C 12.765625 -19.617188 12.59375 -19.359375 12.5 -19.015625 C 12.226562 -18.023438 11.96875 -17.03125 11.71875 -16.03125 C 11.4375 -15.039062 11.15625 -14.050781 10.875 -13.0625 Z M 10.875 -13.0625 "/></g></g></g></g><g clip-path="url(#1b058608bc)"><g fill="#f4f4ef" fill-opacity="1"><g transform="translate(277.029968, 35.071754)"><g><path d="M 21.515625 -30.171875 C 21.515625 -29.796875 21.394531 -29.484375 21.15625 -29.234375 C 20.875 -28.960938 20.53125 -28.828125 20.125 -28.828125 L 15.890625 -28.828125 C 15.523438 -28.828125 15.21875 -28.703125 14.96875 -28.453125 C 14.6875 -28.171875 14.546875 -27.84375 14.546875 -27.46875 L 14.546875 -1.34375 C 14.546875 -0.976562 14.421875 -0.671875 14.171875 -0.421875 C 13.898438 -0.140625 13.5625 0 13.15625 0 L 10.640625 0 C 10.273438 0 9.96875 -0.140625 9.71875 -0.421875 C 9.4375 -0.671875 9.296875 -0.976562 9.296875 -1.34375 L 9.296875 -27.46875 C 9.296875 -27.84375 9.171875 -28.171875 8.921875 -28.453125 C 8.640625 -28.703125 8.316406 -28.828125 7.953125 -28.828125 L 3.671875 -28.828125 C 3.296875 -28.828125 2.988281 -28.960938 2.75 -29.234375 C 2.46875 -29.484375 2.328125 -29.796875 2.328125 -30.171875 L 2.328125 -32.71875 C 2.328125 -33.09375 2.46875 -33.421875 2.75 -33.703125 C 2.988281 -33.953125 3.296875 -34.078125 3.671875 -34.078125 L 20.125 -34.078125 C 20.53125 -34.078125 20.875 -33.953125 21.15625 -33.703125 C 21.394531 -33.421875 21.515625 -33.09375 21.515625 -32.71875 Z M 21.515625 -30.171875 "/></g></g></g></g><g clip-path="url(#8e8007108b)"><g fill="#f4f4ef" fill-opacity="1"><g transform="translate(300.876431, 35.071754)"><g><path d="M 11.34375 -34.078125 C 13.082031 -34.078125 14.582031 -33.6875 15.84375 -32.90625 C 17.113281 -32.101562 18.15625 -31.066406 18.96875 -29.796875 C 19.769531 -28.523438 20.34375 -27.097656 20.6875 -25.515625 C 21.03125 -23.941406 21.140625 -22.347656 21.015625 -20.734375 C 20.859375 -19.117188 20.484375 -17.582031 19.890625 -16.125 C 19.273438 -14.675781 18.441406 -13.453125 17.390625 -12.453125 C 16.921875 -12.054688 16.796875 -11.578125 17.015625 -11.015625 L 20.359375 -1.8125 C 20.515625 -1.375 20.46875 -0.972656 20.21875 -0.609375 C 19.9375 -0.203125 19.550781 0 19.0625 0 L 16.40625 0 C 15.757812 0 15.328125 -0.296875 15.109375 -0.890625 L 12.09375 -9.25 C 11.875 -9.84375 11.4375 -10.140625 10.78125 -10.140625 L 8.921875 -10.140625 C 8.554688 -10.140625 8.25 -10.015625 8 -9.765625 C 7.71875 -9.484375 7.578125 -9.15625 7.578125 -8.78125 L 7.578125 -1.34375 C 7.578125 -0.976562 7.453125 -0.671875 7.203125 -0.421875 C 6.921875 -0.140625 6.597656 0 6.234375 0 L 3.671875 0 C 3.296875 0 2.988281 -0.140625 2.75 -0.421875 C 2.46875 -0.671875 2.328125 -0.976562 2.328125 -1.34375 L 2.328125 -32.71875 C 2.328125 -33.09375 2.46875 -33.421875 2.75 -33.703125 C 2.988281 -33.953125 3.296875 -34.078125 3.671875 -34.078125 Z M 7.578125 -16.734375 C 7.578125 -16.359375 7.71875 -16.050781 8 -15.8125 C 8.25 -15.53125 8.554688 -15.390625 8.921875 -15.390625 L 11.4375 -15.390625 C 12.394531 -15.390625 13.203125 -15.726562 13.859375 -16.40625 C 14.503906 -17.0625 15 -17.882812 15.34375 -18.875 C 15.675781 -19.863281 15.84375 -20.945312 15.84375 -22.125 C 15.84375 -23.269531 15.691406 -24.335938 15.390625 -25.328125 C 15.046875 -26.328125 14.550781 -27.164062 13.90625 -27.84375 C 13.25 -28.5 12.425781 -28.828125 11.4375 -28.828125 L 8.921875 -28.828125 C 8.554688 -28.828125 8.25 -28.703125 8 -28.453125 C 7.71875 -28.171875 7.578125 -27.84375 7.578125 -27.46875 Z M 7.578125 -16.734375 "/></g></g></g></g><g clip-path="url(#bf54a0751e)"><g fill="#f4f4ef" fill-opacity="1"><g transform="translate(324.258047, 35.071754)"><g><path d="M 21.25 0 C 20.59375 0 20.15625 -0.335938 19.9375 -1.015625 C 19.84375 -1.359375 19.71875 -1.859375 19.5625 -2.515625 C 19.382812 -3.128906 19.15625 -3.976562 18.875 -5.0625 C 18.65625 -5.75 18.207031 -6.09375 17.53125 -6.09375 L 10.09375 -6.09375 C 9.40625 -6.09375 8.953125 -5.75 8.734375 -5.0625 C 8.515625 -4.226562 8.332031 -3.472656 8.1875 -2.796875 C 8 -2.109375 7.828125 -1.515625 7.671875 -1.015625 C 7.453125 -0.335938 7.019531 0 6.375 0 L 3.71875 0 C 3.28125 0 2.925781 -0.1875 2.65625 -0.5625 C 2.375 -0.894531 2.296875 -1.28125 2.421875 -1.71875 C 2.722656 -2.863281 3.109375 -4.320312 3.578125 -6.09375 C 4.046875 -7.820312 4.554688 -9.710938 5.109375 -11.765625 C 5.671875 -13.773438 6.242188 -15.863281 6.828125 -18.03125 C 7.390625 -20.175781 7.929688 -22.222656 8.453125 -24.171875 C 8.953125 -26.085938 9.421875 -27.835938 9.859375 -29.421875 C 10.253906 -30.972656 10.578125 -32.179688 10.828125 -33.046875 C 10.890625 -33.359375 11.046875 -33.609375 11.296875 -33.796875 C 11.546875 -33.984375 11.820312 -34.078125 12.125 -34.078125 L 15.484375 -34.078125 C 15.785156 -34.078125 16.0625 -33.984375 16.3125 -33.796875 C 16.5625 -33.609375 16.71875 -33.359375 16.78125 -33.046875 C 17.863281 -28.960938 18.804688 -25.460938 19.609375 -22.546875 C 20.390625 -19.628906 21.039062 -17.179688 21.5625 -15.203125 C 22.09375 -13.210938 22.53125 -11.613281 22.875 -10.40625 C 23.175781 -9.195312 23.4375 -8.238281 23.65625 -7.53125 C 23.84375 -6.789062 24 -6.234375 24.125 -5.859375 C 24.21875 -5.453125 24.3125 -5.078125 24.40625 -4.734375 C 24.5 -4.398438 24.609375 -4.015625 24.734375 -3.578125 C 24.828125 -3.140625 24.976562 -2.519531 25.1875 -1.71875 C 25.3125 -1.28125 25.238281 -0.894531 24.96875 -0.5625 C 24.6875 -0.1875 24.328125 0 23.890625 0 Z M 10.875 -13.0625 C 10.75 -12.625 10.828125 -12.238281 11.109375 -11.90625 C 11.390625 -11.53125 11.742188 -11.34375 12.171875 -11.34375 L 15.4375 -11.34375 C 15.863281 -11.34375 16.21875 -11.53125 16.5 -11.90625 C 16.78125 -12.238281 16.859375 -12.625 16.734375 -13.0625 C 16.484375 -13.925781 16.234375 -14.851562 15.984375 -15.84375 C 15.710938 -16.84375 15.421875 -17.898438 15.109375 -19.015625 C 15.015625 -19.359375 14.84375 -19.617188 14.59375 -19.796875 C 14.34375 -19.953125 14.082031 -20.03125 13.8125 -20.03125 C 13.53125 -20.03125 13.265625 -19.953125 13.015625 -19.796875 C 12.765625 -19.617188 12.59375 -19.359375 12.5 -19.015625 C 12.226562 -18.023438 11.96875 -17.03125 11.71875 -16.03125 C 11.4375 -15.039062 11.15625 -14.050781 10.875 -13.0625 Z M 10.875 -13.0625 "/></g></g></g></g><g clip-path="url(#4532337bb2)"><g fill="#f4f4ef" fill-opacity="1"><g transform="translate(350.475194, 35.071754)"><g><path d="M 10.640625 -34.078125 C 13.335938 -34.078125 15.367188 -33.347656 16.734375 -31.890625 C 18.097656 -30.429688 18.78125 -28.367188 18.78125 -25.703125 C 18.78125 -25.390625 18.6875 -25.144531 18.5 -24.96875 C 18.28125 -24.75 18.015625 -24.640625 17.703125 -24.640625 L 14.59375 -24.640625 C 14.28125 -24.640625 14.035156 -24.75 13.859375 -24.96875 C 13.640625 -25.144531 13.53125 -25.390625 13.53125 -25.703125 L 13.53125 -26.03125 C 13.53125 -27.207031 13.296875 -28.0625 12.828125 -28.59375 C 12.359375 -29.082031 11.675781 -29.328125 10.78125 -29.328125 C 9.882812 -29.328125 9.203125 -29.082031 8.734375 -28.59375 C 8.242188 -28.0625 8 -27.207031 8 -26.03125 C 8 -25.414062 8.078125 -24.84375 8.234375 -24.3125 C 8.378906 -23.75 8.640625 -23.191406 9.015625 -22.640625 C 9.390625 -22.078125 9.882812 -21.488281 10.5 -20.875 C 11.09375 -20.21875 11.835938 -19.519531 12.734375 -18.78125 C 13.878906 -17.820312 14.859375 -16.921875 15.671875 -16.078125 C 16.441406 -15.210938 17.0625 -14.378906 17.53125 -13.578125 C 17.988281 -12.734375 18.328125 -11.894531 18.546875 -11.0625 C 18.734375 -10.226562 18.828125 -9.332031 18.828125 -8.375 C 18.828125 -5.675781 18.144531 -3.613281 16.78125 -2.1875 C 15.382812 -0.726562 13.320312 0 10.59375 0 C 7.875 0 5.816406 -0.726562 4.421875 -2.1875 C 3.023438 -3.613281 2.328125 -5.675781 2.328125 -8.375 L 2.328125 -9.390625 C 2.328125 -9.671875 2.4375 -9.921875 2.65625 -10.140625 C 2.832031 -10.316406 3.0625 -10.40625 3.34375 -10.40625 L 6.515625 -10.40625 C 6.785156 -10.40625 7.03125 -10.316406 7.25 -10.140625 C 7.46875 -9.921875 7.578125 -9.671875 7.578125 -9.390625 L 7.578125 -8.046875 C 7.578125 -6.867188 7.828125 -6.03125 8.328125 -5.53125 C 8.816406 -5.03125 9.507812 -4.78125 10.40625 -4.78125 C 11.3125 -4.78125 12.023438 -5.03125 12.546875 -5.53125 C 13.046875 -6.03125 13.296875 -6.867188 13.296875 -8.046875 C 13.296875 -8.628906 13.21875 -9.203125 13.0625 -9.765625 C 12.90625 -10.316406 12.640625 -10.875 12.265625 -11.4375 C 11.898438 -11.988281 11.421875 -12.59375 10.828125 -13.25 C 10.210938 -13.863281 9.453125 -14.546875 8.546875 -15.296875 C 7.398438 -16.253906 6.441406 -17.148438 5.671875 -17.984375 C 4.898438 -18.828125 4.28125 -19.664062 3.8125 -20.5 C 3.3125 -21.332031 2.972656 -22.171875 2.796875 -23.015625 C 2.578125 -23.847656 2.46875 -24.742188 2.46875 -25.703125 C 2.46875 -28.367188 3.148438 -30.429688 4.515625 -31.890625 C 5.867188 -33.347656 7.910156 -34.078125 10.640625 -34.078125 Z M 10.640625 -34.078125 "/></g></g></g></g><g clip-path="url(#68c129c1d5)"><g fill="#f4f4ef" fill-opacity="1"><g transform="translate(370.231032, 35.071754)"><g><path d="M 15.25 0 C 10.9375 0 7.601562 -1.796875 5.25 -5.390625 C 3.300781 -8.429688 2.328125 -12.304688 2.328125 -17.015625 C 2.328125 -19.335938 2.570312 -21.488281 3.0625 -23.46875 C 3.5625 -25.425781 4.289062 -27.148438 5.25 -28.640625 C 7.601562 -32.265625 10.9375 -34.078125 15.25 -34.078125 C 19.550781 -34.078125 22.878906 -32.265625 25.234375 -28.640625 C 26.203125 -27.148438 26.929688 -25.425781 27.421875 -23.46875 C 27.921875 -21.488281 28.171875 -19.335938 28.171875 -17.015625 C 28.171875 -12.304688 27.191406 -8.429688 25.234375 -5.390625 C 22.878906 -1.796875 19.550781 0 15.25 0 Z M 15.25 -28.828125 C 14.070312 -28.828125 13.0625 -28.609375 12.21875 -28.171875 C 11.382812 -27.703125 10.691406 -27.113281 10.140625 -26.40625 C 9.546875 -25.65625 9.078125 -24.847656 8.734375 -23.984375 C 8.398438 -23.085938 8.15625 -22.207031 8 -21.34375 C 7.8125 -20.4375 7.703125 -19.613281 7.671875 -18.875 C 7.609375 -18.09375 7.578125 -17.472656 7.578125 -17.015625 C 7.578125 -16.546875 7.609375 -15.941406 7.671875 -15.203125 C 7.703125 -14.421875 7.8125 -13.597656 8 -12.734375 C 8.15625 -11.867188 8.398438 -11.003906 8.734375 -10.140625 C 9.078125 -9.234375 9.546875 -8.425781 10.140625 -7.71875 C 10.691406 -6.96875 11.382812 -6.378906 12.21875 -5.953125 C 13.0625 -5.484375 14.070312 -5.25 15.25 -5.25 C 16.425781 -5.25 17.429688 -5.484375 18.265625 -5.953125 C 19.109375 -6.378906 19.820312 -6.96875 20.40625 -7.71875 C 20.96875 -8.425781 21.414062 -9.234375 21.75 -10.140625 C 22.09375 -11.003906 22.359375 -11.867188 22.546875 -12.734375 C 22.703125 -13.597656 22.8125 -14.421875 22.875 -15.203125 C 22.90625 -15.941406 22.921875 -16.546875 22.921875 -17.015625 C 22.921875 -17.472656 22.90625 -18.09375 22.875 -18.875 C 22.8125 -19.613281 22.703125 -20.4375 22.546875 -21.34375 C 22.359375 -22.207031 22.09375 -23.085938 21.75 -23.984375 C 21.414062 -24.847656 20.96875 -25.65625 20.40625 -26.40625 C 19.820312 -27.113281 19.109375 -27.703125 18.265625 -28.171875 C 17.429688 -28.609375 16.425781 -28.828125 15.25 -28.828125 Z M 15.25 -28.828125 "/></g></g></g></g><g clip-path="url(#cb8680d952)"><g fill="#f4f4ef" fill-opacity="1"><g transform="translate(399.330191, 35.071754)"><g><path d="M 10.640625 -34.078125 C 13.335938 -34.078125 15.367188 -33.347656 16.734375 -31.890625 C 18.097656 -30.429688 18.78125 -28.367188 18.78125 -25.703125 C 18.78125 -25.390625 18.6875 -25.144531 18.5 -24.96875 C 18.28125 -24.75 18.015625 -24.640625 17.703125 -24.640625 L 14.59375 -24.640625 C 14.28125 -24.640625 14.035156 -24.75 13.859375 -24.96875 C 13.640625 -25.144531 13.53125 -25.390625 13.53125 -25.703125 L 13.53125 -26.03125 C 13.53125 -27.207031 13.296875 -28.0625 12.828125 -28.59375 C 12.359375 -29.082031 11.675781 -29.328125 10.78125 -29.328125 C 9.882812 -29.328125 9.203125 -29.082031 8.734375 -28.59375 C 8.242188 -28.0625 8 -27.207031 8 -26.03125 C 8 -25.414062 8.078125 -24.84375 8.234375 -24.3125 C 8.378906 -23.75 8.640625 -23.191406 9.015625 -22.640625 C 9.390625 -22.078125 9.882812 -21.488281 10.5 -20.875 C 11.09375 -20.21875 11.835938 -19.519531 12.734375 -18.78125 C 13.878906 -17.820312 14.859375 -16.921875 15.671875 -16.078125 C 16.441406 -15.210938 17.0625 -14.378906 17.53125 -13.578125 C 17.988281 -12.734375 18.328125 -11.894531 18.546875 -11.0625 C 18.734375 -10.226562 18.828125 -9.332031 18.828125 -8.375 C 18.828125 -5.675781 18.144531 -3.613281 16.78125 -2.1875 C 15.382812 -0.726562 13.320312 0 10.59375 0 C 7.875 0 5.816406 -0.726562 4.421875 -2.1875 C 3.023438 -3.613281 2.328125 -5.675781 2.328125 -8.375 L 2.328125 -9.390625 C 2.328125 -9.671875 2.4375 -9.921875 2.65625 -10.140625 C 2.832031 -10.316406 3.0625 -10.40625 3.34375 -10.40625 L 6.515625 -10.40625 C 6.785156 -10.40625 7.03125 -10.316406 7.25 -10.140625 C 7.46875 -9.921875 7.578125 -9.671875 7.578125 -9.390625 L 7.578125 -8.046875 C 7.578125 -6.867188 7.828125 -6.03125 8.328125 -5.53125 C 8.816406 -5.03125 9.507812 -4.78125 10.40625 -4.78125 C 11.3125 -4.78125 12.023438 -5.03125 12.546875 -5.53125 C 13.046875 -6.03125 13.296875 -6.867188 13.296875 -8.046875 C 13.296875 -8.628906 13.21875 -9.203125 13.0625 -9.765625 C 12.90625 -10.316406 12.640625 -10.875 12.265625 -11.4375 C 11.898438 -11.988281 11.421875 -12.59375 10.828125 -13.25 C 10.210938 -13.863281 9.453125 -14.546875 8.546875 -15.296875 C 7.398438 -16.253906 6.441406 -17.148438 5.671875 -17.984375 C 4.898438 -18.828125 4.28125 -19.664062 3.8125 -20.5 C 3.3125 -21.332031 2.972656 -22.171875 2.796875 -23.015625 C 2.578125 -23.847656 2.46875 -24.742188 2.46875 -25.703125 C 2.46875 -28.367188 3.148438 -30.429688 4.515625 -31.890625 C 5.867188 -33.347656 7.910156 -34.078125 10.640625 -34.078125 Z M 10.640625 -34.078125 "/></g></g></g></g></g></g></svg>