<svg xmlns="http://www.w3.org/2000/svg" xmlns:xlink="http://www.w3.org/1999/xlink" width="270" zoomAndPan="magnify" viewBox="0 0 202.5 219.749993" height="293" preserveAspectRatio="xMidYMid meet" version="1.0"><defs><g/><clipPath id="69aaacb003"><path d="M 0.839844 0.535156 L 85 0.535156 L 85 138 L 0.839844 138 Z M 0.839844 0.535156 " clip-rule="nonzero"/></clipPath><clipPath id="21b56106b4"><rect x="0" width="85" y="0" height="138"/></clipPath><clipPath id="79052f6202"><path d="M 14 16 L 114.796875 16 L 114.796875 144.179688 L 14 144.179688 Z M 14 16 " clip-rule="nonzero"/></clipPath><clipPath id="af5ba59037"><rect x="0" width="101" y="0" height="129"/></clipPath><clipPath id="7ac943b86c"><rect x="0" width="115" y="0" height="145"/></clipPath></defs><g transform="matrix(1, 0, 0, 1, 48, 36)"><g clip-path="url(#7ac943b86c)"><g clip-path="url(#69aaacb003)"><g transform="matrix(1, 0, 0, 1, 0, -0.000000000000042633)"><g clip-path="url(#21b56106b4)"><g fill="#071d34" fill-opacity="0.4"><g transform="translate(6.233699, 96.669664)"><g><path d="M 37.4375 0.796875 C 32.863281 0.796875 29.207031 -0.09375 26.46875 -1.875 C 23.738281 -3.664062 21.78125 -6.117188 20.59375 -9.234375 C 19.414062 -12.359375 18.882812 -15.898438 19 -19.859375 C 19.113281 -23.816406 19.757812 -27.960938 20.9375 -32.296875 C 22.113281 -36.628906 23.691406 -40.890625 25.671875 -45.078125 C 23.085938 -46.453125 20.992188 -48.296875 19.390625 -50.609375 C 17.796875 -52.929688 17 -55.539062 17 -58.4375 C 17 -59.800781 17.1875 -61.148438 17.5625 -62.484375 C 17.945312 -63.816406 18.5625 -65.050781 19.40625 -66.1875 C 20.082031 -67.101562 20.820312 -67.332031 21.625 -66.875 C 22.425781 -66.414062 22.632812 -66 22.25 -65.625 C 20.5 -63.644531 19.625 -61.25 19.625 -58.4375 C 19.625 -56.070312 20.269531 -53.921875 21.5625 -51.984375 C 22.863281 -50.046875 24.578125 -48.503906 26.703125 -47.359375 C 28.835938 -51.847656 31.40625 -56.128906 34.40625 -60.203125 C 37.414062 -64.273438 40.707031 -67.890625 44.28125 -71.046875 C 47.851562 -74.203125 51.632812 -76.671875 55.625 -78.453125 C 59.625 -80.242188 63.640625 -81.140625 67.671875 -81.140625 C 70.566406 -81.140625 72.960938 -80.242188 74.859375 -78.453125 C 76.765625 -76.671875 77.71875 -74.21875 77.71875 -71.09375 C 77.71875 -67.675781 76.765625 -64.441406 74.859375 -61.390625 C 72.960938 -58.347656 70.453125 -55.59375 67.328125 -53.125 C 64.210938 -50.65625 60.710938 -48.5625 56.828125 -46.84375 C 52.953125 -45.132812 49.015625 -43.898438 45.015625 -43.140625 C 41.023438 -42.378906 37.28125 -42.226562 33.78125 -42.6875 C 32.101562 -39.789062 30.597656 -36.535156 29.265625 -32.921875 C 27.941406 -29.304688 26.953125 -25.671875 26.296875 -22.015625 C 25.648438 -18.367188 25.554688 -15.003906 26.015625 -11.921875 C 26.472656 -8.835938 27.671875 -6.363281 29.609375 -4.5 C 31.554688 -2.644531 34.394531 -1.71875 38.125 -1.71875 C 40.78125 -1.71875 43.800781 -2.320312 47.1875 -3.53125 C 50.570312 -4.75 54.035156 -6.800781 57.578125 -9.6875 C 61.117188 -12.582031 64.410156 -16.503906 67.453125 -21.453125 C 67.984375 -22.285156 68.398438 -22.757812 68.703125 -22.875 C 69.003906 -22.988281 69.304688 -22.972656 69.609375 -22.828125 C 70.222656 -22.523438 70.335938 -22.066406 69.953125 -21.453125 C 66.304688 -15.671875 62.617188 -11.160156 58.890625 -7.921875 C 55.160156 -4.691406 51.488281 -2.429688 47.875 -1.140625 C 44.257812 0.148438 40.78125 0.796875 37.4375 0.796875 Z M 35.03125 -45.078125 C 40.28125 -45.078125 45.28125 -45.800781 50.03125 -47.25 C 54.789062 -48.695312 59.015625 -50.632812 62.703125 -53.0625 C 66.398438 -55.5 69.332031 -58.257812 71.5 -61.34375 C 73.664062 -64.425781 74.75 -67.601562 74.75 -70.875 C 74.75 -72.625 74.21875 -74.066406 73.15625 -75.203125 C 72.09375 -76.347656 70.757812 -76.921875 69.15625 -76.921875 C 65.957031 -76.921875 62.78125 -76.0625 59.625 -74.34375 C 56.46875 -72.632812 53.40625 -70.273438 50.4375 -67.265625 C 47.476562 -64.265625 44.6875 -60.863281 42.0625 -57.0625 C 39.4375 -53.257812 37.09375 -49.265625 35.03125 -45.078125 Z M 35.03125 -45.078125 "/></g></g></g><g fill="#f4f4ef" fill-opacity="1"><g transform="translate(1.189615, 91.625581)"><g><path d="M 37.4375 0.796875 C 32.863281 0.796875 29.207031 -0.09375 26.46875 -1.875 C 23.738281 -3.664062 21.78125 -6.117188 20.59375 -9.234375 C 19.414062 -12.359375 18.882812 -15.898438 19 -19.859375 C 19.113281 -23.816406 19.757812 -27.960938 20.9375 -32.296875 C 22.113281 -36.628906 23.691406 -40.890625 25.671875 -45.078125 C 23.085938 -46.453125 20.992188 -48.296875 19.390625 -50.609375 C 17.796875 -52.929688 17 -55.539062 17 -58.4375 C 17 -59.800781 17.1875 -61.148438 17.5625 -62.484375 C 17.945312 -63.816406 18.5625 -65.050781 19.40625 -66.1875 C 20.082031 -67.101562 20.820312 -67.332031 21.625 -66.875 C 22.425781 -66.414062 22.632812 -66 22.25 -65.625 C 20.5 -63.644531 19.625 -61.25 19.625 -58.4375 C 19.625 -56.070312 20.269531 -53.921875 21.5625 -51.984375 C 22.863281 -50.046875 24.578125 -48.503906 26.703125 -47.359375 C 28.835938 -51.847656 31.40625 -56.128906 34.40625 -60.203125 C 37.414062 -64.273438 40.707031 -67.890625 44.28125 -71.046875 C 47.851562 -74.203125 51.632812 -76.671875 55.625 -78.453125 C 59.625 -80.242188 63.640625 -81.140625 67.671875 -81.140625 C 70.566406 -81.140625 72.960938 -80.242188 74.859375 -78.453125 C 76.765625 -76.671875 77.71875 -74.21875 77.71875 -71.09375 C 77.71875 -67.675781 76.765625 -64.441406 74.859375 -61.390625 C 72.960938 -58.347656 70.453125 -55.59375 67.328125 -53.125 C 64.210938 -50.65625 60.710938 -48.5625 56.828125 -46.84375 C 52.953125 -45.132812 49.015625 -43.898438 45.015625 -43.140625 C 41.023438 -42.378906 37.28125 -42.226562 33.78125 -42.6875 C 32.101562 -39.789062 30.597656 -36.535156 29.265625 -32.921875 C 27.941406 -29.304688 26.953125 -25.671875 26.296875 -22.015625 C 25.648438 -18.367188 25.554688 -15.003906 26.015625 -11.921875 C 26.472656 -8.835938 27.671875 -6.363281 29.609375 -4.5 C 31.554688 -2.644531 34.394531 -1.71875 38.125 -1.71875 C 40.78125 -1.71875 43.800781 -2.320312 47.1875 -3.53125 C 50.570312 -4.75 54.035156 -6.800781 57.578125 -9.6875 C 61.117188 -12.582031 64.410156 -16.503906 67.453125 -21.453125 C 67.984375 -22.285156 68.398438 -22.757812 68.703125 -22.875 C 69.003906 -22.988281 69.304688 -22.972656 69.609375 -22.828125 C 70.222656 -22.523438 70.335938 -22.066406 69.953125 -21.453125 C 66.304688 -15.671875 62.617188 -11.160156 58.890625 -7.921875 C 55.160156 -4.691406 51.488281 -2.429688 47.875 -1.140625 C 44.257812 0.148438 40.78125 0.796875 37.4375 0.796875 Z M 35.03125 -45.078125 C 40.28125 -45.078125 45.28125 -45.800781 50.03125 -47.25 C 54.789062 -48.695312 59.015625 -50.632812 62.703125 -53.0625 C 66.398438 -55.5 69.332031 -58.257812 71.5 -61.34375 C 73.664062 -64.425781 74.75 -67.601562 74.75 -70.875 C 74.75 -72.625 74.21875 -74.066406 73.15625 -75.203125 C 72.09375 -76.347656 70.757812 -76.921875 69.15625 -76.921875 C 65.957031 -76.921875 62.78125 -76.0625 59.625 -74.34375 C 56.46875 -72.632812 53.40625 -70.273438 50.4375 -67.265625 C 47.476562 -64.265625 44.6875 -60.863281 42.0625 -57.0625 C 39.4375 -53.257812 37.09375 -49.265625 35.03125 -45.078125 Z M 35.03125 -45.078125 "/></g></g></g></g></g></g><g clip-path="url(#79052f6202)"><g transform="matrix(1, 0, 0, 1, 14, 16)"><g clip-path="url(#af5ba59037)"><g fill="#071d34" fill-opacity="0.4"><g transform="translate(9.016469, 91.127442)"><g><path d="M 56.75 15.625 C 55.863281 15.582031 55.148438 15.332031 54.609375 14.875 C 54.078125 14.414062 53.828125 13.84375 53.859375 13.15625 C 54.023438 10.050781 54.484375 6.726562 55.234375 3.1875 C 55.984375 -0.34375 56.941406 -4.023438 58.109375 -7.859375 C 55.710938 -9.140625 53.171875 -10.6875 50.484375 -12.5 C 47.804688 -14.320312 45.019531 -16.144531 42.125 -17.96875 C 38.125 -12.65625 33.976562 -8.222656 29.6875 -4.671875 C 25.394531 -1.128906 20.910156 0.691406 16.234375 0.796875 C 12.378906 0.890625 9.222656 0.242188 6.765625 -1.140625 C 4.304688 -2.523438 2.550781 -4.347656 1.5 -6.609375 C 0.445312 -8.878906 0.0234375 -11.289062 0.234375 -13.84375 C 0.441406 -16.394531 1.238281 -18.816406 2.625 -21.109375 C 4.019531 -23.398438 5.972656 -25.300781 8.484375 -26.8125 C 11.003906 -28.320312 14.050781 -29.113281 17.625 -29.1875 C 21.488281 -29.269531 25.320312 -28.578125 29.125 -27.109375 C 32.925781 -25.640625 36.625 -23.875 40.21875 -21.8125 C 43.144531 -26.125 46.023438 -30.691406 48.859375 -35.515625 C 51.703125 -40.335938 54.53125 -45.054688 57.34375 -49.671875 C 60.15625 -54.285156 62.925781 -58.472656 65.65625 -62.234375 C 68.394531 -65.992188 71.128906 -69.023438 73.859375 -71.328125 C 76.597656 -73.628906 79.3125 -74.835938 82 -74.953125 C 84.332031 -75.035156 85.757812 -74.144531 86.28125 -72.28125 C 86.800781 -70.414062 86.644531 -67.8125 85.8125 -64.46875 C 84.976562 -61.125 83.71875 -57.234375 82.03125 -52.796875 C 80.351562 -48.367188 78.457031 -43.640625 76.34375 -38.609375 C 74.238281 -33.578125 72.132812 -28.4375 70.03125 -23.1875 C 67.9375 -17.945312 66.0625 -12.820312 64.40625 -7.8125 C 65.582031 -7.4375 66.65625 -7.269531 67.625 -7.3125 C 70.082031 -7.40625 72.222656 -7.914062 74.046875 -8.84375 C 75.878906 -9.78125 77.695312 -11.363281 79.5 -13.59375 C 81.300781 -15.832031 83.363281 -18.894531 85.6875 -22.78125 C 86.332031 -23.96875 87.003906 -24.40625 87.703125 -24.09375 C 87.992188 -23.96875 88.125 -23.765625 88.09375 -23.484375 C 88.070312 -23.210938 88.03125 -23.003906 87.96875 -22.859375 C 85.644531 -18.847656 83.484375 -15.546875 81.484375 -12.953125 C 79.484375 -10.367188 77.40625 -8.429688 75.25 -7.140625 C 73.101562 -5.859375 70.523438 -5.15625 67.515625 -5.03125 C 66.203125 -4.976562 64.914062 -5.171875 63.65625 -5.609375 C 62.5625 -2.117188 61.679688 1.21875 61.015625 4.40625 C 60.347656 7.59375 60 10.535156 59.96875 13.234375 C 59.9375 14.117188 59.6875 14.738281 59.21875 15.09375 C 58.75 15.457031 57.925781 15.632812 56.75 15.625 Z M 58.9375 -10.171875 C 60.851562 -15.878906 63.035156 -21.648438 65.484375 -27.484375 C 67.929688 -33.328125 70.335938 -38.894531 72.703125 -44.1875 C 75.078125 -49.488281 77.097656 -54.179688 78.765625 -58.265625 C 80.429688 -62.359375 81.472656 -65.597656 81.890625 -67.984375 C 82.316406 -70.378906 81.8125 -71.546875 80.375 -71.484375 C 78.507812 -71.410156 76.535156 -70.285156 74.453125 -68.109375 C 72.378906 -65.929688 70.175781 -63.003906 67.84375 -59.328125 C 65.507812 -55.648438 63.035156 -51.578125 60.421875 -47.109375 C 57.816406 -42.640625 55.113281 -38.046875 52.3125 -33.328125 C 49.507812 -28.617188 46.566406 -24.132812 43.484375 -19.875 C 46.304688 -18.125 49.023438 -16.390625 51.640625 -14.671875 C 54.253906 -12.960938 56.6875 -11.460938 58.9375 -10.171875 Z M 16.25 -1.46875 C 20.164062 -1.550781 24.015625 -3.332031 27.796875 -6.8125 C 31.578125 -10.289062 35.296875 -14.65625 38.953125 -19.90625 C 35.503906 -21.894531 31.992188 -23.578125 28.421875 -24.953125 C 24.859375 -26.335938 21.257812 -26.988281 17.625 -26.90625 C 14.113281 -26.84375 11.207031 -25.921875 8.90625 -24.140625 C 6.613281 -22.367188 4.976562 -20.207031 4 -17.65625 C 3.03125 -15.101562 2.800781 -12.582031 3.3125 -10.09375 C 3.820312 -7.601562 5.140625 -5.519531 7.265625 -3.84375 C 9.398438 -2.164062 12.394531 -1.375 16.25 -1.46875 Z M 16.25 -1.46875 "/></g></g></g><g fill="#f4f4ef" fill-opacity="1"><g transform="translate(4.282971, 86.752363)"><g><path d="M 56.75 15.625 C 55.863281 15.582031 55.148438 15.332031 54.609375 14.875 C 54.078125 14.414062 53.828125 13.84375 53.859375 13.15625 C 54.023438 10.050781 54.484375 6.726562 55.234375 3.1875 C 55.984375 -0.34375 56.941406 -4.023438 58.109375 -7.859375 C 55.710938 -9.140625 53.171875 -10.6875 50.484375 -12.5 C 47.804688 -14.320312 45.019531 -16.144531 42.125 -17.96875 C 38.125 -12.65625 33.976562 -8.222656 29.6875 -4.671875 C 25.394531 -1.128906 20.910156 0.691406 16.234375 0.796875 C 12.378906 0.890625 9.222656 0.242188 6.765625 -1.140625 C 4.304688 -2.523438 2.550781 -4.347656 1.5 -6.609375 C 0.445312 -8.878906 0.0234375 -11.289062 0.234375 -13.84375 C 0.441406 -16.394531 1.238281 -18.816406 2.625 -21.109375 C 4.019531 -23.398438 5.972656 -25.300781 8.484375 -26.8125 C 11.003906 -28.320312 14.050781 -29.113281 17.625 -29.1875 C 21.488281 -29.269531 25.320312 -28.578125 29.125 -27.109375 C 32.925781 -25.640625 36.625 -23.875 40.21875 -21.8125 C 43.144531 -26.125 46.023438 -30.691406 48.859375 -35.515625 C 51.703125 -40.335938 54.53125 -45.054688 57.34375 -49.671875 C 60.15625 -54.285156 62.925781 -58.472656 65.65625 -62.234375 C 68.394531 -65.992188 71.128906 -69.023438 73.859375 -71.328125 C 76.597656 -73.628906 79.3125 -74.835938 82 -74.953125 C 84.332031 -75.035156 85.757812 -74.144531 86.28125 -72.28125 C 86.800781 -70.414062 86.644531 -67.8125 85.8125 -64.46875 C 84.976562 -61.125 83.71875 -57.234375 82.03125 -52.796875 C 80.351562 -48.367188 78.457031 -43.640625 76.34375 -38.609375 C 74.238281 -33.578125 72.132812 -28.4375 70.03125 -23.1875 C 67.9375 -17.945312 66.0625 -12.820312 64.40625 -7.8125 C 65.582031 -7.4375 66.65625 -7.269531 67.625 -7.3125 C 70.082031 -7.40625 72.222656 -7.914062 74.046875 -8.84375 C 75.878906 -9.78125 77.695312 -11.363281 79.5 -13.59375 C 81.300781 -15.832031 83.363281 -18.894531 85.6875 -22.78125 C 86.332031 -23.96875 87.003906 -24.40625 87.703125 -24.09375 C 87.992188 -23.96875 88.125 -23.765625 88.09375 -23.484375 C 88.070312 -23.210938 88.03125 -23.003906 87.96875 -22.859375 C 85.644531 -18.847656 83.484375 -15.546875 81.484375 -12.953125 C 79.484375 -10.367188 77.40625 -8.429688 75.25 -7.140625 C 73.101562 -5.859375 70.523438 -5.15625 67.515625 -5.03125 C 66.203125 -4.976562 64.914062 -5.171875 63.65625 -5.609375 C 62.5625 -2.117188 61.679688 1.21875 61.015625 4.40625 C 60.347656 7.59375 60 10.535156 59.96875 13.234375 C 59.9375 14.117188 59.6875 14.738281 59.21875 15.09375 C 58.75 15.457031 57.925781 15.632812 56.75 15.625 Z M 58.9375 -10.171875 C 60.851562 -15.878906 63.035156 -21.648438 65.484375 -27.484375 C 67.929688 -33.328125 70.335938 -38.894531 72.703125 -44.1875 C 75.078125 -49.488281 77.097656 -54.179688 78.765625 -58.265625 C 80.429688 -62.359375 81.472656 -65.597656 81.890625 -67.984375 C 82.316406 -70.378906 81.8125 -71.546875 80.375 -71.484375 C 78.507812 -71.410156 76.535156 -70.285156 74.453125 -68.109375 C 72.378906 -65.929688 70.175781 -63.003906 67.84375 -59.328125 C 65.507812 -55.648438 63.035156 -51.578125 60.421875 -47.109375 C 57.816406 -42.640625 55.113281 -38.046875 52.3125 -33.328125 C 49.507812 -28.617188 46.566406 -24.132812 43.484375 -19.875 C 46.304688 -18.125 49.023438 -16.390625 51.640625 -14.671875 C 54.253906 -12.960938 56.6875 -11.460938 58.9375 -10.171875 Z M 16.25 -1.46875 C 20.164062 -1.550781 24.015625 -3.332031 27.796875 -6.8125 C 31.578125 -10.289062 35.296875 -14.65625 38.953125 -19.90625 C 35.503906 -21.894531 31.992188 -23.578125 28.421875 -24.953125 C 24.859375 -26.335938 21.257812 -26.988281 17.625 -26.90625 C 14.113281 -26.84375 11.207031 -25.921875 8.90625 -24.140625 C 6.613281 -22.367188 4.976562 -20.207031 4 -17.65625 C 3.03125 -15.101562 2.800781 -12.582031 3.3125 -10.09375 C 3.820312 -7.601562 5.140625 -5.519531 7.265625 -3.84375 C 9.398438 -2.164062 12.394531 -1.375 16.25 -1.46875 Z M 16.25 -1.46875 "/></g></g></g></g></g></g></g></g></svg>