<svg xmlns="http://www.w3.org/2000/svg" xmlns:xlink="http://www.w3.org/1999/xlink" width="165" zoomAndPan="magnify" viewBox="0 0 123.75 134.249994" height="179" preserveAspectRatio="xMidYMid meet" version="1.0"><defs><g/><clipPath id="a2f6596679"><path d="M 0.8125 0.957031 L 52 0.957031 L 52 85 L 0.8125 85 Z M 0.8125 0.957031 " clip-rule="nonzero"/></clipPath><clipPath id="1c0193c0dd"><path d="M 14 10 L 51.890625 10 L 51.890625 60 L 14 60 Z M 14 10 " clip-rule="nonzero"/></clipPath><clipPath id="3b54bd93f8"><rect x="0" width="52" y="0" height="85"/></clipPath><clipPath id="21c8c97922"><path d="M 9 10 L 70.265625 10 L 70.265625 88.308594 L 9 88.308594 Z M 9 10 " clip-rule="nonzero"/></clipPath><clipPath id="b2e06e9204"><path d="M 0.167969 7 L 58 7 L 58 65 L 0.167969 65 Z M 0.167969 7 " clip-rule="nonzero"/></clipPath><clipPath id="926bf59378"><rect x="0" width="62" y="0" height="79"/></clipPath><clipPath id="3588814cac"><rect x="0" width="71" y="0" height="89"/></clipPath></defs><g transform="matrix(1, 0, 0, 1, 29, 21)"><g clip-path="url(#3588814cac)"><g clip-path="url(#a2f6596679)"><g transform="matrix(1, 0, 0, 1, -0.000000000000007105, -0.000000000000021316)"><g clip-path="url(#3b54bd93f8)"><g clip-path="url(#1c0193c0dd)"><g fill="#071d34" fill-opacity="0.4"><g transform="translate(4.151476, 59.471647)"><g><path d="M 22.734375 0.484375 C 19.960938 0.484375 17.742188 -0.0546875 16.078125 -1.140625 C 14.410156 -2.222656 13.21875 -3.710938 12.5 -5.609375 C 11.789062 -7.503906 11.46875 -9.648438 11.53125 -12.046875 C 11.601562 -14.453125 12 -16.972656 12.71875 -19.609375 C 13.4375 -22.242188 14.394531 -24.832031 15.59375 -27.375 C 14.019531 -28.207031 12.75 -29.328125 11.78125 -30.734375 C 10.8125 -32.140625 10.328125 -33.722656 10.328125 -35.484375 C 10.328125 -36.316406 10.441406 -37.132812 10.671875 -37.9375 C 10.898438 -38.75 11.269531 -39.5 11.78125 -40.1875 C 12.195312 -40.75 12.644531 -40.890625 13.125 -40.609375 C 13.613281 -40.328125 13.742188 -40.070312 13.515625 -39.84375 C 12.453125 -38.644531 11.921875 -37.191406 11.921875 -35.484375 C 11.921875 -34.046875 12.3125 -32.738281 13.09375 -31.5625 C 13.882812 -30.382812 14.925781 -29.453125 16.21875 -28.765625 C 17.507812 -31.484375 19.066406 -34.078125 20.890625 -36.546875 C 22.710938 -39.023438 24.707031 -41.222656 26.875 -43.140625 C 29.050781 -45.054688 31.351562 -46.554688 33.78125 -47.640625 C 36.207031 -48.722656 38.644531 -49.265625 41.09375 -49.265625 C 42.84375 -49.265625 44.296875 -48.722656 45.453125 -47.640625 C 46.609375 -46.554688 47.1875 -45.066406 47.1875 -43.171875 C 47.1875 -41.085938 46.609375 -39.125 45.453125 -37.28125 C 44.296875 -35.4375 42.769531 -33.757812 40.875 -32.25 C 38.988281 -30.75 36.863281 -29.476562 34.5 -28.4375 C 32.144531 -27.40625 29.753906 -26.65625 27.328125 -26.1875 C 24.910156 -25.726562 22.640625 -25.640625 20.515625 -25.921875 C 19.492188 -24.160156 18.578125 -22.179688 17.765625 -19.984375 C 16.960938 -17.796875 16.363281 -15.59375 15.96875 -13.375 C 15.582031 -11.15625 15.523438 -9.109375 15.796875 -7.234375 C 16.078125 -5.367188 16.804688 -3.867188 17.984375 -2.734375 C 19.160156 -1.609375 20.878906 -1.046875 23.140625 -1.046875 C 24.765625 -1.046875 26.601562 -1.410156 28.65625 -2.140625 C 30.707031 -2.878906 32.804688 -4.128906 34.953125 -5.890625 C 37.109375 -7.648438 39.109375 -10.03125 40.953125 -13.03125 C 41.273438 -13.539062 41.53125 -13.828125 41.71875 -13.890625 C 41.90625 -13.960938 42.085938 -13.953125 42.265625 -13.859375 C 42.640625 -13.671875 42.710938 -13.394531 42.484375 -13.03125 C 40.265625 -9.519531 38.019531 -6.78125 35.75 -4.8125 C 33.488281 -2.851562 31.257812 -1.476562 29.0625 -0.6875 C 26.875 0.09375 24.765625 0.484375 22.734375 0.484375 Z M 21.28125 -27.375 C 24.46875 -27.375 27.503906 -27.8125 30.390625 -28.6875 C 33.273438 -29.5625 35.835938 -30.738281 38.078125 -32.21875 C 40.316406 -33.695312 42.09375 -35.367188 43.40625 -37.234375 C 44.726562 -39.109375 45.390625 -41.039062 45.390625 -43.03125 C 45.390625 -44.09375 45.066406 -44.96875 44.421875 -45.65625 C 43.773438 -46.351562 42.96875 -46.703125 42 -46.703125 C 40.050781 -46.703125 38.117188 -46.179688 36.203125 -45.140625 C 34.285156 -44.109375 32.425781 -42.675781 30.625 -40.84375 C 28.820312 -39.019531 27.125 -36.953125 25.53125 -34.640625 C 23.9375 -32.335938 22.519531 -29.914062 21.28125 -27.375 Z M 21.28125 -27.375 "/></g></g></g></g><g fill="#f4f4ef" fill-opacity="1"><g transform="translate(1.088585, 56.408756)"><g><path d="M 22.734375 0.484375 C 19.960938 0.484375 17.742188 -0.0546875 16.078125 -1.140625 C 14.410156 -2.222656 13.21875 -3.710938 12.5 -5.609375 C 11.789062 -7.503906 11.46875 -9.648438 11.53125 -12.046875 C 11.601562 -14.453125 12 -16.972656 12.71875 -19.609375 C 13.4375 -22.242188 14.394531 -24.832031 15.59375 -27.375 C 14.019531 -28.207031 12.75 -29.328125 11.78125 -30.734375 C 10.8125 -32.140625 10.328125 -33.722656 10.328125 -35.484375 C 10.328125 -36.316406 10.441406 -37.132812 10.671875 -37.9375 C 10.898438 -38.75 11.269531 -39.5 11.78125 -40.1875 C 12.195312 -40.75 12.644531 -40.890625 13.125 -40.609375 C 13.613281 -40.328125 13.742188 -40.070312 13.515625 -39.84375 C 12.453125 -38.644531 11.921875 -37.191406 11.921875 -35.484375 C 11.921875 -34.046875 12.3125 -32.738281 13.09375 -31.5625 C 13.882812 -30.382812 14.925781 -29.453125 16.21875 -28.765625 C 17.507812 -31.484375 19.066406 -34.078125 20.890625 -36.546875 C 22.710938 -39.023438 24.707031 -41.222656 26.875 -43.140625 C 29.050781 -45.054688 31.351562 -46.554688 33.78125 -47.640625 C 36.207031 -48.722656 38.644531 -49.265625 41.09375 -49.265625 C 42.84375 -49.265625 44.296875 -48.722656 45.453125 -47.640625 C 46.609375 -46.554688 47.1875 -45.066406 47.1875 -43.171875 C 47.1875 -41.085938 46.609375 -39.125 45.453125 -37.28125 C 44.296875 -35.4375 42.769531 -33.757812 40.875 -32.25 C 38.988281 -30.75 36.863281 -29.476562 34.5 -28.4375 C 32.144531 -27.40625 29.753906 -26.65625 27.328125 -26.1875 C 24.910156 -25.726562 22.640625 -25.640625 20.515625 -25.921875 C 19.492188 -24.160156 18.578125 -22.179688 17.765625 -19.984375 C 16.960938 -17.796875 16.363281 -15.59375 15.96875 -13.375 C 15.582031 -11.15625 15.523438 -9.109375 15.796875 -7.234375 C 16.078125 -5.367188 16.804688 -3.867188 17.984375 -2.734375 C 19.160156 -1.609375 20.878906 -1.046875 23.140625 -1.046875 C 24.765625 -1.046875 26.601562 -1.410156 28.65625 -2.140625 C 30.707031 -2.878906 32.804688 -4.128906 34.953125 -5.890625 C 37.109375 -7.648438 39.109375 -10.03125 40.953125 -13.03125 C 41.273438 -13.539062 41.53125 -13.828125 41.71875 -13.890625 C 41.90625 -13.960938 42.085938 -13.953125 42.265625 -13.859375 C 42.640625 -13.671875 42.710938 -13.394531 42.484375 -13.03125 C 40.265625 -9.519531 38.019531 -6.78125 35.75 -4.8125 C 33.488281 -2.851562 31.257812 -1.476562 29.0625 -0.6875 C 26.875 0.09375 24.765625 0.484375 22.734375 0.484375 Z M 21.28125 -27.375 C 24.46875 -27.375 27.503906 -27.8125 30.390625 -28.6875 C 33.273438 -29.5625 35.835938 -30.738281 38.078125 -32.21875 C 40.316406 -33.695312 42.09375 -35.367188 43.40625 -37.234375 C 44.726562 -39.109375 45.390625 -41.039062 45.390625 -43.03125 C 45.390625 -44.09375 45.066406 -44.96875 44.421875 -45.65625 C 43.773438 -46.351562 42.96875 -46.703125 42 -46.703125 C 40.050781 -46.703125 38.117188 -46.179688 36.203125 -45.140625 C 34.285156 -44.109375 32.425781 -42.675781 30.625 -40.84375 C 28.820312 -39.019531 27.125 -36.953125 25.53125 -34.640625 C 23.9375 -32.335938 22.519531 -29.914062 21.28125 -27.375 Z M 21.28125 -27.375 "/></g></g></g></g></g></g><g clip-path="url(#21c8c97922)"><g transform="matrix(1, 0, 0, 1, 9, 10)"><g clip-path="url(#926bf59378)"><g fill="#071d34" fill-opacity="0.4"><g transform="translate(5.342381, 55.821874)"><g><path d="M 34.453125 9.46875 C 33.910156 9.445312 33.476562 9.300781 33.15625 9.03125 C 32.832031 8.757812 32.679688 8.414062 32.703125 8 C 32.796875 6.113281 33.070312 4.09375 33.53125 1.9375 C 33.988281 -0.207031 34.578125 -2.441406 35.296875 -4.765625 C 33.828125 -5.554688 32.28125 -6.503906 30.65625 -7.609375 C 29.039062 -8.710938 27.347656 -9.8125 25.578125 -10.90625 C 23.160156 -7.6875 20.644531 -5 18.03125 -2.84375 C 15.414062 -0.6875 12.691406 0.421875 9.859375 0.484375 C 7.523438 0.535156 5.609375 0.144531 4.109375 -0.6875 C 2.609375 -1.53125 1.539062 -2.640625 0.90625 -4.015625 C 0.269531 -5.390625 0.015625 -6.847656 0.140625 -8.390625 C 0.265625 -9.941406 0.75 -11.414062 1.59375 -12.8125 C 2.4375 -14.207031 3.625 -15.359375 5.15625 -16.265625 C 6.6875 -17.179688 8.535156 -17.664062 10.703125 -17.71875 C 13.046875 -17.757812 15.375 -17.335938 17.6875 -16.453125 C 20 -15.566406 22.242188 -14.5 24.421875 -13.25 C 26.210938 -15.863281 27.960938 -18.632812 29.671875 -21.5625 C 31.390625 -24.5 33.101562 -27.363281 34.8125 -30.15625 C 36.519531 -32.957031 38.207031 -35.5 39.875 -37.78125 C 41.550781 -40.070312 43.210938 -41.921875 44.859375 -43.328125 C 46.515625 -44.734375 48.15625 -45.46875 49.78125 -45.53125 C 51.195312 -45.582031 52.0625 -45.035156 52.375 -43.890625 C 52.695312 -42.753906 52.601562 -41.171875 52.09375 -39.140625 C 51.59375 -37.117188 50.832031 -34.757812 49.8125 -32.0625 C 48.789062 -29.375 47.640625 -26.5 46.359375 -23.4375 C 45.085938 -20.382812 43.8125 -17.265625 42.53125 -14.078125 C 41.257812 -10.898438 40.117188 -7.785156 39.109375 -4.734375 C 39.828125 -4.503906 40.476562 -4.40625 41.0625 -4.4375 C 42.570312 -4.488281 43.878906 -4.800781 44.984375 -5.375 C 46.085938 -5.945312 47.179688 -6.910156 48.265625 -8.265625 C 49.359375 -9.617188 50.613281 -11.472656 52.03125 -13.828125 C 52.425781 -14.554688 52.832031 -14.820312 53.25 -14.625 C 53.425781 -14.550781 53.503906 -14.429688 53.484375 -14.265625 C 53.472656 -14.097656 53.445312 -13.972656 53.40625 -13.890625 C 52 -11.453125 50.691406 -9.441406 49.484375 -7.859375 C 48.273438 -6.285156 47.015625 -5.109375 45.703125 -4.328125 C 44.398438 -3.546875 42.828125 -3.117188 40.984375 -3.046875 C 40.191406 -3.015625 39.414062 -3.132812 38.65625 -3.40625 C 37.988281 -1.289062 37.453125 0.734375 37.046875 2.671875 C 36.648438 4.617188 36.441406 6.40625 36.421875 8.03125 C 36.398438 8.5625 36.242188 8.9375 35.953125 9.15625 C 35.660156 9.382812 35.160156 9.488281 34.453125 9.46875 Z M 35.796875 -6.1875 C 36.953125 -9.644531 38.273438 -13.148438 39.765625 -16.703125 C 41.253906 -20.253906 42.71875 -23.632812 44.15625 -26.84375 C 45.601562 -30.0625 46.828125 -32.910156 47.828125 -35.390625 C 48.835938 -37.867188 49.472656 -39.832031 49.734375 -41.28125 C 49.992188 -42.726562 49.679688 -43.4375 48.796875 -43.40625 C 47.679688 -43.363281 46.488281 -42.679688 45.21875 -41.359375 C 43.957031 -40.035156 42.617188 -38.253906 41.203125 -36.015625 C 39.785156 -33.785156 38.285156 -31.316406 36.703125 -28.609375 C 35.117188 -25.898438 33.472656 -23.109375 31.765625 -20.234375 C 30.066406 -17.367188 28.28125 -14.644531 26.40625 -12.0625 C 28.132812 -11.007812 29.785156 -9.960938 31.359375 -8.921875 C 32.941406 -7.878906 34.421875 -6.96875 35.796875 -6.1875 Z M 9.875 -0.890625 C 12.25 -0.941406 14.585938 -2.023438 16.890625 -4.140625 C 19.191406 -6.265625 21.445312 -8.910156 23.65625 -12.078125 C 21.5625 -13.296875 19.429688 -14.320312 17.265625 -15.15625 C 15.097656 -15.988281 12.90625 -16.378906 10.6875 -16.328125 C 8.570312 -16.285156 6.8125 -15.726562 5.40625 -14.65625 C 4.007812 -13.582031 3.015625 -12.269531 2.421875 -10.71875 C 1.835938 -9.175781 1.703125 -7.644531 2.015625 -6.125 C 2.328125 -4.613281 3.128906 -3.347656 4.421875 -2.328125 C 5.722656 -1.316406 7.539062 -0.835938 9.875 -0.890625 Z M 9.875 -0.890625 "/></g></g></g><g clip-path="url(#b2e06e9204)"><g fill="#f4f4ef" fill-opacity="1"><g transform="translate(2.468086, 53.165218)"><g><path d="M 34.453125 9.46875 C 33.910156 9.445312 33.476562 9.300781 33.15625 9.03125 C 32.832031 8.757812 32.679688 8.414062 32.703125 8 C 32.796875 6.113281 33.070312 4.09375 33.53125 1.9375 C 33.988281 -0.207031 34.578125 -2.441406 35.296875 -4.765625 C 33.828125 -5.554688 32.28125 -6.503906 30.65625 -7.609375 C 29.039062 -8.710938 27.347656 -9.8125 25.578125 -10.90625 C 23.160156 -7.6875 20.644531 -5 18.03125 -2.84375 C 15.414062 -0.6875 12.691406 0.421875 9.859375 0.484375 C 7.523438 0.535156 5.609375 0.144531 4.109375 -0.6875 C 2.609375 -1.53125 1.539062 -2.640625 0.90625 -4.015625 C 0.269531 -5.390625 0.015625 -6.847656 0.140625 -8.390625 C 0.265625 -9.941406 0.75 -11.414062 1.59375 -12.8125 C 2.4375 -14.207031 3.625 -15.359375 5.15625 -16.265625 C 6.6875 -17.179688 8.535156 -17.664062 10.703125 -17.71875 C 13.046875 -17.757812 15.375 -17.335938 17.6875 -16.453125 C 20 -15.566406 22.242188 -14.5 24.421875 -13.25 C 26.210938 -15.863281 27.960938 -18.632812 29.671875 -21.5625 C 31.390625 -24.5 33.101562 -27.363281 34.8125 -30.15625 C 36.519531 -32.957031 38.207031 -35.5 39.875 -37.78125 C 41.550781 -40.070312 43.210938 -41.921875 44.859375 -43.328125 C 46.515625 -44.734375 48.15625 -45.46875 49.78125 -45.53125 C 51.195312 -45.582031 52.0625 -45.035156 52.375 -43.890625 C 52.695312 -42.753906 52.601562 -41.171875 52.09375 -39.140625 C 51.59375 -37.117188 50.832031 -34.757812 49.8125 -32.0625 C 48.789062 -29.375 47.640625 -26.5 46.359375 -23.4375 C 45.085938 -20.382812 43.8125 -17.265625 42.53125 -14.078125 C 41.257812 -10.898438 40.117188 -7.785156 39.109375 -4.734375 C 39.828125 -4.503906 40.476562 -4.40625 41.0625 -4.4375 C 42.570312 -4.488281 43.878906 -4.800781 44.984375 -5.375 C 46.085938 -5.945312 47.179688 -6.910156 48.265625 -8.265625 C 49.359375 -9.617188 50.613281 -11.472656 52.03125 -13.828125 C 52.425781 -14.554688 52.832031 -14.820312 53.25 -14.625 C 53.425781 -14.550781 53.503906 -14.429688 53.484375 -14.265625 C 53.472656 -14.097656 53.445312 -13.972656 53.40625 -13.890625 C 52 -11.453125 50.691406 -9.441406 49.484375 -7.859375 C 48.273438 -6.285156 47.015625 -5.109375 45.703125 -4.328125 C 44.398438 -3.546875 42.828125 -3.117188 40.984375 -3.046875 C 40.191406 -3.015625 39.414062 -3.132812 38.65625 -3.40625 C 37.988281 -1.289062 37.453125 0.734375 37.046875 2.671875 C 36.648438 4.617188 36.441406 6.40625 36.421875 8.03125 C 36.398438 8.5625 36.242188 8.9375 35.953125 9.15625 C 35.660156 9.382812 35.160156 9.488281 34.453125 9.46875 Z M 35.796875 -6.1875 C 36.953125 -9.644531 38.273438 -13.148438 39.765625 -16.703125 C 41.253906 -20.253906 42.71875 -23.632812 44.15625 -26.84375 C 45.601562 -30.0625 46.828125 -32.910156 47.828125 -35.390625 C 48.835938 -37.867188 49.472656 -39.832031 49.734375 -41.28125 C 49.992188 -42.726562 49.679688 -43.4375 48.796875 -43.40625 C 47.679688 -43.363281 46.488281 -42.679688 45.21875 -41.359375 C 43.957031 -40.035156 42.617188 -38.253906 41.203125 -36.015625 C 39.785156 -33.785156 38.285156 -31.316406 36.703125 -28.609375 C 35.117188 -25.898438 33.472656 -23.109375 31.765625 -20.234375 C 30.066406 -17.367188 28.28125 -14.644531 26.40625 -12.0625 C 28.132812 -11.007812 29.785156 -9.960938 31.359375 -8.921875 C 32.941406 -7.878906 34.421875 -6.96875 35.796875 -6.1875 Z M 9.875 -0.890625 C 12.25 -0.941406 14.585938 -2.023438 16.890625 -4.140625 C 19.191406 -6.265625 21.445312 -8.910156 23.65625 -12.078125 C 21.5625 -13.296875 19.429688 -14.320312 17.265625 -15.15625 C 15.097656 -15.988281 12.90625 -16.378906 10.6875 -16.328125 C 8.570312 -16.285156 6.8125 -15.726562 5.40625 -14.65625 C 4.007812 -13.582031 3.015625 -12.269531 2.421875 -10.71875 C 1.835938 -9.175781 1.703125 -7.644531 2.015625 -6.125 C 2.328125 -4.613281 3.128906 -3.347656 4.421875 -2.328125 C 5.722656 -1.316406 7.539062 -0.835938 9.875 -0.890625 Z M 9.875 -0.890625 "/></g></g></g></g></g></g></g></g></g></svg>